<?xml version="1.0" encoding="utf-8"?>
<!-- Generator: Adobe Illustrator 25.0.0, SVG Export Plug-In . SVG Version: 6.00 Build 0)  -->
<svg version="1.1" id="Layer_1" xmlns="http://www.w3.org/2000/svg" xmlns:xlink="http://www.w3.org/1999/xlink" x="0px" y="0px"
	 viewBox="0 0 122.9 86.4" style="enable-background:new 0 0 122.9 86.4;" xml:space="preserve">
<style type="text/css">
	.st0{fill-rule:evenodd;clip-rule:evenodd;}
</style>
<path class="st0" d="M121.6,18.6L121.6,18.6c0,0-1.2-8.5-4.9-12.2c-4.7-4.9-9.9-4.9-12.3-5.2C87.2,0,61.4,0,61.4,0s-25.8,0-43,1.2
	C16,1.5,10.8,1.6,6.1,6.5c-3.7,3.7-4.9,12.2-4.9,12.2C0.5,25.3,0.1,31.9,0,38.5v9.3c0.1,6.7,0.5,13.3,1.2,19.9c0,0,1.2,8.5,4.9,12.2
	c4.7,4.9,10.8,4.7,13.6,5.3c9.8,0.9,41.8,1.2,41.8,1.2s25.8,0,43-1.3c2.4-0.3,7.6-0.3,12.3-5.2c3.7-3.7,4.9-12.2,4.9-12.2
	c0.8-6.6,1.2-13.2,1.2-19.9v-9.4C122.8,31.9,122.4,25.2,121.6,18.6z M48.7,59.2V24.6l33.2,17.3L48.7,59.2z"/>
</svg>
