<?xml version="1.0" encoding="utf-8"?>
<!-- Generator: Adobe Illustrator 25.0.0, SVG Export Plug-In . SVG Version: 6.00 Build 0)  -->
<svg version="1.1" id="Layer_1" xmlns="http://www.w3.org/2000/svg" xmlns:xlink="http://www.w3.org/1999/xlink" x="0px" y="0px"
	 viewBox="0 0 2560 1708.5" style="enable-background:new 0 0 2560 1708.5;" xml:space="preserve">
<style type="text/css">
	.st0{opacity:0.96;enable-background:new    ;}
	.st1{display:none;opacity:0.96;enable-background:new    ;}
</style>
<path class="st0" d="M1278.8,1284.2c-35.5,9.9-53.2-42.2-13.7-52c16.9-2.9,24.4,7.1,43,17.8c5.3,3.1,10.4,4.7,39.1,3.6
	c25.8-0.2,97.2-0.3,109.7-0.6c0,0,85.7,0,86.1,0c12.1-0.5,197.6,0.2,264.1-0.5c27.8,0.5,82.9-0.3,196.9-0.6
	c11.5,0,242.4,0.3,242.4,0.3c39.3,1.1,88-0.2,118.3-0.2c0,0,180-0.2,195.1-0.2v10.7l-141.1,0.2c-12,0.2-118.4,0.3-126.8,0.5
	l-332.3,0.8l-121.2,0.3c-27.6-0.6-201.1,0.6-278.3,0.3c-277.8-0.6-243.2-1.9-259.5,8.4C1293.4,1276.5,1286.9,1282.1,1278.8,1284.2
	 M1283,1269c3.1-4.2,0.6-9.5,0.6-14.1c-0.3-0.3-0.9-1.1-1.2-1.4c-0.9-3.1-3.4-5.3-5.4-7.8c-0.3,0-1.1,0.2-1.4,0.2l0.3-1.1
	c-4.3-1.2-9.8-2.5-13.3,0.9c-2.2,2.2-5,3.9-6.1,6.8l-0.5-0.6c-7.6,13.7,3.4,25.3,14.6,24.5C1275.5,1276.5,1280.4,1273.4,1283,1269z"
	/>
<path class="st0" d="M1065.3,1265.6c-22.2,7.1-45.5-16-34.1-37.4c2.9-6.8,8.2-12.1,11.8-18.5c3.3-5.9,2.2-12.7,2.2-19.2
	c0-0.9,0.3-91.6,0.2-94.7c0.8-13,0-60.1,0.3-65.3c1.2-22.2-3.3-16,17.8-36.9c35.4-34.9,16.6-25.1,104-26.7
	c87.2-5.1,53.2,13.5,98.7-27.9c84-80.2,59-66.1,105.8-67.8c4-0.2,142.9,0.3,143.9,0.3c7.3,0,14.6-1.2,21.9-0.5
	c10.4,1.2,20.8-1.2,31.2,0c33.8-0.6,205.3-0.8,206.3-0.6c102.6-2.9,76.4,5.4,100.3-15.1c27.2-23.6,29.2-28.4,29.2-33.8
	c0-0.9,4.2-209.8,4.7-218.8c0-6.8,4-221.9,4.5-227.2c7.3-353.7,7.1-343,10.6-349.7c4.5-8.5,8.7-17.4,14.3-25.3h70.5
	c20.6,42.5,15.5,12.7,13.3,160.9c0,0-3.7,142-3.7,157.1c0,0.2-4.2,181.1-5.4,223.5c0.3,16.3-0.9,9,6.5,27
	c5.1,12.6,18.5,14.3,29.6,6.7c13.8-11.9,9.8-30.6,10.9-55.6c0.3-4,2.6-98.7,2.5-108.8c0.8-13.8,2.2-81.6,6.7-261.3
	c-0.2-11.2,2-67.5,1.9-78.5c1.1-48.3,0.3-38.5,10.2-58.4c2.3-4.2,4.7-8.5,7.1-12.7h72.3c14.7,37.4,14.9,19.7,14.9,47.3l-1.9,66.3
	c0.5,32.6-2.6,103.7-2.8,121.2c-0.2,15.2-4.7,166.5-4.5,184.5c-0.2,37.4-3.6,47,1.6,56.6c3.1,5.9,4.5,13.2,10.2,17.2
	c14.1,9.3,32.3,0.3,36.8-9.5c2.8-6.1,6.8-11.9,6.7-18.9c0.9-27.9,3.9-140.1,3.9-141.1c2.3-97.2,3.7-140.9,3.7-140.9
	c0-4.2,4-145.3,4-146.3c0.2-9.6,10.7-28.2,15.5-36.5h74c3.3,9,7.4,17.5,11.8,26.1c3.3,6.7,1.9,14.3,2,21.3
	c0,0.9-3.9,152.7-3.9,154.3c0,0-4.5,154.9-4.8,160c-0.9,10.6,7,30.3,14.4,34.5c14.6,7.6,30.3-1.2,34.3-7.9
	c12.7-23.1,7-22.8,9.2-45.3c0-1.1,4.2-140,4.2-160.9c9-160.6-3.7-135.5,14.4-172.1c1.7-3.3,3.3-6.5,5.1-9.8h74.2
	c2.8,9.2,7.8,17.5,11.8,26.1c3.3,7,1.4,14.7,1.9,22.2c-4.5,196-7.1,195.7-3.3,205.6c8.2,20.2,11.3,25,16.8,27.6
	c5.7,2.8,12.4,5.3,18.8,2.9c5.3-1.9,10.9-3.3,15.2-6.8c7.1-5.9,8.7-15.8,14.6-22.8V296c-10.4,3.3-20.2,8.4-30.7,11.2
	c-9,2.2-17.5-2.8-25.8-5.3c-21.1-6.8-18.5-16.3-27.9-32.7c-11.2-17.7-5.1,3.4-0.8-214.2c0.2-11.8,2.9-20.2-8.5-38.8
	c-3.3-5.3-9.3-8.1-15.2-9.3c-11.3-2.5-29.2,7.4-32.7,29.2c-1.2,12.7-4.2,139.2-4.2,140.1c-1.1,25.5-4.3,153.2-5.4,181.7
	c-0.5,14,1.2,19.2-14,45c-3.4,6.1-10.1,8.8-16.3,11c-6.2,2-12.1,5.3-18.3,7c-10.2,2.8-34-7.4-38.5-12.1c-4.7-4.7-6.7-11.2-9.5-16.9
	c-3.3-7.1-7.4-14.4-7-22.7c0-0.2,4.3-160.2,4.3-164.8c4.5-165,7.9-170.7-5.4-188.9c-3.3-4.5-8.7-6.5-14-7.8
	c-6.1-1.6-12.1,1.4-17.4,4c-18.5,9.5-16,41.4-16,44.2c-1.1,26.2-2.9,102.1-2.8,106c-0.5,10.9-3.9,132.1-3.7,132.5
	c-6.4,208.1-0.2,170.2-16.3,202.8c-2.8,5.9-7.8,10.6-13.8,12.9c-7.8,3.1-15.4,6.7-23.3,9.2c-6.8,2.2-13.7-1.2-20.2-3.3
	c-7-2.6-14.9-4.7-19.6-10.7c-4.3-5.7-6.7-12.9-9.9-19.2c-2.8-5.4-5.7-11.3-5.3-17.7c0.3-7.1,4.3-155.8,4.7-181.4
	c0-0.9,0.9-66.4,3.3-78.7c0.9-4.5-1.6-8.7-1.4-13.2c0.6-9.8-1.1-19.7-0.3-29.5c1.6-9.3,2.2-9.5,1.2-37.7c-0.3-4.2,1.7-8.1,3.1-12.1
	c1.1-3.1,0-6.4-0.6-9.6c-0.6-3.1,0.8-58.5,0.9-60.7c0.6-10.1-7.4-27.3-12.4-31.5c-15.7-12.3-32.7,0.3-36.3,5.1
	c-8.8,12.3-10.1,19.1-9.8,83.2c-0.8,11.6-2.9,137.5-4,156.1c-0.2,29.2-5.9,238.4-5.9,238.4c0,19.9-1.2,39.7-0.9,59.8
	c0.2,4.8-2,9.2-3.9,13.3c-11,22-7.8,18.9-27.6,27.6c-7.1,2.6-14.9,6.4-22.7,3.4c-6.2-2.3-12.9-3.7-18.8-6.7
	c-8.8-5.3-10.4-16.3-16.1-24.1c-9.8-13.8-1.2-20.5-1.4-154.7c0-0.9,3.1-137.8,3.4-142c0.3-4.5,5-217.7,5-217.7
	c0.6-15.7,1.9-15.7-7.9-35.4c-3.1-6.1-9.6-9.3-16-10.7c-6.1-1.1-11.8,2-17.2,4.5c-7,3.3-10.2,10.7-13.2,17.4
	c-2.3,5.3-2.3,11.2-2.5,16.8c-0.2,2.2-1.1,47-1.1,48.3c-1.7,106.6-4.3,187.2-3.9,200.5c-1.1,20.8-3.9,164.7-3.9,165.7
	c0,0-2.9,139.1-2.9,141.1c0.2,6.2-1.1,12.6-0.2,18.8c0.9,6.1-0.9,11.9-0.8,18c0,0-3.1,137.5-2.8,144.8c0.2,14.6-0.9,29.2-1.1,43.8
	c-0.6,5.9-5,10.6-9.3,14.4c-49.5,42.8-36.5,46.9-73.4,46.1c-1.7,0-247.2,0.6-248,0.8c-9.9,0.8-179.9,0.8-180.8,0.8l-64.4,0.6
	c-8.7-0.6-11.3,8.1-40.5,33.8c-4.2,3.7-33.2,32.1-34.1,32.9c-31.8,31-25.3,26.8-47.3,28.1c-161.9-0.8-117.3-4.2-151,21.7
	c-15.8,13.3-7.6,7.8-9.5,132.1c-0.5,3.3-2,62.2,0.9,68.6c5.1,9.8,18.6,21.4,14,36.5C1082.3,1255.8,1074.3,1262.8,1065.3,1265.6
	 M1066,1230.4c-3.7-5.4-15.1-8.4-24.4,1.9c-6.1,8.1-3.7,21.3,8.7,25.9C1064.3,1260.8,1077.1,1251.5,1066,1230.4z"/>
<path class="st0" d="M1718.2,1236.1c-5.6,0.2-212.5,0.3-216.8,0.2c-16.5,0.9-114.8-0.2-134.4,0.2c-26.4,1.9-22.3-2.6-43.6-21.4
	c-5-4.3-34.5-32.9-36.9-36.6c-4.7-6.7,0.8-13-5.1-23.6c-9.2-16.8-21.9-25.8-18-43.1c3.4-16.1,25.1-26.7,42.1-17.8
	c12.6,6.2,20.8,23.6,10.1,39c-14.7,21.4-19.6,26.4-17.2,37.6c3.1,8.2,17.8,18.9,25,26.7c25.3,26.1,29.3,28.7,38.2,28.2
	c54.2-0.3,183.3,0.2,191.2-0.6c0.2,0,352-0.3,352-0.3c10.4-0.2,228.4-0.5,243.3-0.8c17.4,0.2,21.3,2.6,29.6-5.6
	c10.6-10.2,85.5-79.8,86.8-80.9c0.5-0.3,97.5-91.1,97.8-91.4c0,0,82.9-77.4,89.2-83.2c8.5-6.1,57.6-54,59.3-55.1
	c7.4-5.1,12.6-12.7,20-18c5.6-3.7,18.6-21.1,29.2-27.5v16.1c-3.3,2.2-6.4,4.8-9.2,7.6c-7.1,7,2.2-5.1-34.1,32.1
	c-4.3,3.4-28.2,26.7-34.9,32.3c-0.9,0.9-114.5,107.1-115,107.6c-3.6,3.9-80.2,75.4-81,76.2c-1.2,1.2-92.5,86.3-92.5,86.3
	c-21.7,17.8-1.4,14.6-77.3,14.7c-15.4,0.2-102.3,0.5-102.3,0.5c-26.1,0.9-85.7-0.2-100.3,0.6
	C1848.2,1236.1,1783.2,1236.1,1718.2,1236.1 M1304.9,1121.1c-1.4-5-1.1-10.6-4.2-15.1c-5.7-6.4-16.9-6.5-22.8-0.3
	c-4.5,4-11.3,16.9,4.3,27.6C1298.4,1138.2,1304.7,1127.6,1304.9,1121.1z"/>
<path class="st0" d="M2089.4,1207c-12.4,0.8-282.3,0.8-299.1,0.6c0,0-206.7,0.5-219.6,0.6c-0.9,0-187.2,1.1-194.1-1.1
	c-5.3-1.6-8.8-6.1-12.7-9.8c-6.4-6.7-13.7-12.3-19.9-19.1c-12.3-13.7-10.9-5-10.7-40.2c0.9-43,1.9-45.9-7-52.8
	c-3.7-2.8-6.5-7.3-11.5-8.2c-9.3-1.2-18.8,0-28.1-0.2c-126.5-0.9-117.6-1.6-126.3,6.8c-13.3,13.2-9.8,9-15.2,33.7
	c-1.2,6.2-2.9,12.9-7.4,17.4c-5.9,6.4-14.6,9.8-23.3,9.9c-18.2-1.7-27.3-14-27.9-27.5c0.6-26.4,34.1-28.1,41-29.6
	c4.7-1.1,9.8-1.4,13.8-4.2c6.8-4.3,11.3-11.5,18.5-15.5c4.2-2.3,120.3-2.8,122.1-2.6c44.5,0,40-2.9,54.6,11.5
	c4,4.2,9.5,8.1,10.7,14.1c1.1,11-1.2,22.2,0,33.2c0.5,11.8-3.6,31.8,3.3,41.9c6.4,7,13.3,13,20,19.7c4.8,4.3,9.2,10.7,16.3,10.9
	c32,0.2,213.2,0.2,233.9-0.6c9.3,0.2,18.6,1.1,27.8,0.3c8.4-0.9,16.8,0.8,25.1,0.2c12.4-1.1,372-0.8,372.9-0.8
	c5.4-0.3,50.7-0.2,54-0.3c21.3-1.6,47.8,2.9,55.4-3.7c0.9-0.9,53.4-50.3,58.2-54.5c33.4-31.3,11.2-6.4,42.5-36.9
	c4.8-5,11-8.5,16-13.5c6.7-5.9,12.4-12.9,19.6-18.3c7-6.2,14.4-12.3,19.2-20.5c5-7.9,12.9-13.2,19.4-19.7
	c0.5-0.5,129.3-120.9,134.9-126.3c6.2-5.1,85.7-81.6,93.9-86.9v16.6c-5.4,3.7-10.2,8.4-14.9,13c-8.4,7.3-88.5,82.9-93.3,87.5
	c-8.8,7.4-85.2,80.1-93.1,86.6c-24.7,24.7-59.1,53.2-65.5,60.7c0,0-74,69.7-90.8,86.1c-49.7,42.2-33.8,40.2-60.8,40.8
	c-11.2,0.3-22.3-0.6-33.4,0.5C2101.8,1207.7,2095.6,1206.6,2089.4,1207 M1129.5,1124.1c0.5-18.6-12.4-23.1-21-20
	c-11.6,5.3-13.8,18-8.1,25.3C1108.4,1140.5,1128,1138.5,1129.5,1124.1z"/>
<path class="st0" d="M1584.7,1179.8c-0.9,0-133.9,1.6-141.8-1.9c-9.3-5.9-24.7-25.6-34.5-27.9c-29.3-6.2-36-7.1-44.5-18.9
	c-13.7-21.9,10.1-45.3,32.1-40c11.2,2.5,20.5,12.3,22,23.6c1.1,7.6,3.1,14.9,4.3,22.3c1.2,7.4,5.3,9,20.2,24.2
	c9.5,10.2,8.8,7,66.3,7.4c0.9,0,122.6-0.2,126,0c0.9,0,89.4,0.3,117.3-0.9c4.7-0.2,320.9,0.5,338.9-0.8
	c57.3-4.8,18.6,20.6,97.2-51.5c8.5-7.6,127.9-119.8,147.6-137.3c1.6-1.6,52.3-50.6,62.9-58.2c0.5-0.5,55.2-52.1,60.7-58
	c4-4.5,8.8-8.1,13.7-11.6c0,0,18.9-19.9,49.4-47.2c2.6-2.9,31.3-30.1,37.1-34.1v16.6c-7.8,5.3-54.3,50.3-70,64.3
	c-4,3.1-8.7,5.6-11.8,9.8c-4.3,5.7-37.9,37.1-39,37.9c-2.5,2-88.3,83-89.2,84c-0.2,0.2-145.9,136.4-149.6,140.1
	c-63.8,56.2-51.4,57-76,57.1c-0.9,0-118.1,0.6-123.1,0.5H1748l-138.1,0.8C1601.8,1179.5,1593.2,1180.1,1584.7,1179.8 M1402.5,1111
	c-8.8-14.3-22.2-9.2-26.8-2.8c-9.9,15.5,2.6,27.6,13.2,27.2C1397.2,1135.7,1407.3,1128.1,1402.5,1111z"/>
<path class="st0" d="M1594.2,1151.9c-23.3,0.5-46.7-0.3-70,0.2c-7.9,0.3-15.8-1.7-23.6-3.1c-12-2.8-32.9-4.5-39.4-19.7
	c-6.5-13-2-28.6,14-36.3c16.3-7.1,36.2,0.3,40.5,19.1c3.7,15.4,3.4,29.2,13.2,28.2c77.8,0.3,262.3-0.6,262.3-0.6
	s302.2-0.8,313.2-0.5c10.7-0.2,11.8-2.3,24.5-14.3c28.7-27.2,79.1-73.1,79.1-73.1c4.3-4.2,9.3-7.8,13.2-12.4c4.7-5.6,11-9,16.1-14
	c0.9-0.9,120.3-115.3,133.5-126.9l115.8-108.6c7.9-6.8,66.3-63.2,73.1-67.7v16.6c-5.1,3.6-37.1,34.1-38,35.1
	c-5,4.5-145.9,136.6-170.9,160.5c-0.2,0.2-89.9,84-93.4,87.5c-65.5,61-64.4,59.4-64.4,59.4c-3.3,3.7-63.2,60.1-64.1,61
	c-10.9,9.9,7.3,9-206.4,8.7c-1.7,0-222.4,0.5-225.3,0.6l-61.6,0.2C1621.9,1152,1608.1,1151.9,1594.2,1151.9 M1501.4,1123.1
	c0.2-5,0.3-10.4-2-15.1c-3.4-6.5-12.3-9.2-18.9-6.1c-3.6,1.4-5.9,4.3-8.2,7.1c-1.4,2.9-2.8,5.9-2.8,9.2c0.3,7.4,6.5,14.1,13.8,15.7
	C1490.8,1136,1499.5,1130.9,1501.4,1123.1z"/>
<path class="st0" d="M1205.7,1142.4c-18,7.3-35.9-2.3-39.7-17.2c-5.3-15.4,6.7-30.1,20.2-33.2c21-6.5,42.8,15.4,34.9,33.8
	C1218.3,1133.1,1213,1139.3,1205.7,1142.4 M1206.8,1125.2c0.3-3.4,0-7-0.3-10.4c-1.4-2.6-5.6-14.9-18-12c-4.8,0.9-8.4,4.7-10.7,8.7
	l-0.9-0.2c0.2,0.5,0.6,1.6,0.8,2.2l-1.2-0.3c-2.9,10.1-0.5,14.6,7.4,21C1200,1139.4,1206,1129.7,1206.8,1125.2z"/>
<path class="st0" d="M2041.1,1122.4c-429,0.6-134.2,0.8-478.9,1.1c-11.6,0.3-16.5-6.7-26.5-16.5c-6.7-7-14.1-12.9-20.8-19.9
	c-16.3-14.9-0.9-8.2-81.5-10.9c-70,1.7-66.7,1.6-80.5-12.6c-8.2-8.8-17.5-16.6-25.9-25.3c-11.5-11.8,1.7-8.4-138.7-8.5
	c-7.4,0.3-15.4-1.4-22.3,2.2c-8.8,4.5-16.8,10.7-25.6,15.1c-30.9,16.5-61.6-24.5-31.8-45.3c7-4.7,16-2.6,23.9-2.9
	c12.6-0.2,26.1,18.3,39.3,19.7c6.8,0.8,102.7,0.5,103.7,0.5c13.5-0.9,27.2-0.2,40.7-0.9c6.1-0.3,11.5,2.8,15.7,7.1
	c11.5,9.5,33.7,34.3,42.7,38.5c5,2.3,27,1.1,38.2,1.4c9.9,0.6,76.7,0.5,82.4,0.3c18.3-0.3,11.8-4.5,54.9,37.9
	c11.8,12-17.1,8.5,256.5,8.5l129.7-0.6c5.7,0.3,63.2-0.3,64.4-0.3c95.1,0,92.5,1.4,98.2-4c13.2-11.8,146.8-137.3,147.7-138.3
	c0.6-0.5,92.3-85.8,100.4-93.7c4-3.9,8.8-6.8,12.6-11c3.7-4.3,8.4-8.1,12.7-11.6c1.7-1.4,28.4-27.2,33.7-32.7
	c5-5.3,11-9.2,16.1-14.1c33.7-32.7,47.5-45.6,79.5-75.7c0.9-0.9,50.6-48.6,58.7-54v16.6c-8.5,5.9-15.7,14.1-65,60.2
	c-7,5.6-50.3,47.8-56,52c0,0-51.4,48.6-56.3,53.4l-73.1,68.8c-4.7,4.8-84.6,78.8-97.2,91.3c-1.9,1.7-61.3,56.8-75.6,70.9
	c-14,11.8-28.6,28.1-35.7,31.5c-11.2,3.6-23,0.6-34.5,1.9C2058,1122.8,2049.5,1121.8,2041.1,1122.4 M1140.2,1032.5
	c1.2-7.1-1.4-14.3-5.7-19.7c-9-7.3-26.7-2.9-25.5,16.3C1109.5,1045.4,1136.2,1049.1,1140.2,1032.5z"/>
<path class="st0" d="M2085.7,1084.7c-11.3,7-22.8,17.7-42.5,6.2c-9-5.3-16.9-19.1-9.3-33.4c8.1-14.6,27.5-21,42.8-10.7
	c14.3,8.5,19.1,17.2,28.1,8.5c33.2-31.8,48-42.1,57-53.2c2.5-3.1,5.9-5.4,9-7.8c3.3-2.3,5.3-6.1,8.1-8.8c2.8-2.9,6.7-4.7,9.6-7.3
	c7.3-6.7,14.1-13.7,21.6-20.2c3.7-3.4,6.8-7.6,10.4-11.2c7-6.7,45.9-43.1,47.3-44.4c0,0,68.3-63.9,69.4-65.2
	C2352.8,822.4,2458,724,2469.3,713c6.1-5.1,80.9-77,90.5-84.1v16.5c-2.3,1.9-4.8,3.6-6.8,5.6c-13.3,12.7-131,123.4-131.1,123.5
	c-0.9,0.8-122.8,115-135.6,128.5c-18.3,15.8-69.5,64.4-70.8,65.6l-68.4,63.2c-10.9,12.7-24.4,23-36,34.9
	C2103.5,1073.6,2094.5,1079.1,2085.7,1084.7 M2073.6,1073.3c-0.9-4-0.9-8.4-2.8-12.3c-12.4-19.9-44.1,9.8-22,25.1
	C2060.1,1094.6,2076.2,1085,2073.6,1073.3z"/>
<path class="st0" d="M1860.2,1075.2c-23.6,0.6-102.6-0.2-138.3,0.8c-17.7-0.6-17.1,0.3-74.8,0c-21-0.2-16.5-2.9-33.2-16.9
	c-9.8-8.1-25.5-4.8-41.9-13.2c-15.2-8.7-21.1-28.7-5.3-43.1c15.7-15.7,46.4-5.9,49.2,18c3.9,29,5.1,27.6,18.5,40
	c6.8,6.5,9.6,2.9,295.8,2.5c4.2,0,8.5,1.1,12.7,0.6c6.8-0.8,13.7,0.2,20.5-0.5c5.3-0.5,11.2,0.9,15.7-2.3c7.3-5.3,13-12.3,19.7-18.3
	c20.8-18.3,24.8-27,38.5-26.8c68.6,0.2,55.9,2.9,73.6-13.5c7.6-7.1,174.3-163.6,178.5-167c9.5-7.4,82.7-77.4,84.1-78.8
	c6.7-7.8,92.2-86.8,94.8-89.7c4.8-5,84.9-80.5,91.6-85.5V598c-7.1,5.1-29.5,26.8-33.7,31c-25.6,23.6-104,97.8-104,97.8
	c-0.9,0.9-77,72.2-80.1,75c-11.3,9.9-28.6,27.5-29,27.9c-3.4,3.6-8.1,5.9-11.3,9.6c-10.6,11.3-9.2,9.8-98.4,93.7
	c-1.1,0.9-84.3,78.7-94,88.6c-3.7,3.7-9,5.3-14.1,5.1c-13.8,0-27.8,1.1-41.6,0.5c-20.5,2.2-12.9-7.4-38.3,17.7
	c-28.7,27.5-30.9,29.2-36.5,29.5c-9,1.1-70.5,0.3-82.4,0.5C1884.2,1075.5,1872.3,1074.9,1860.2,1075.2 M1588.3,1041.4
	c6.4-1.2,11.9-7.1,11.3-13.8c0.8-30.9-33.7-21.9-32.1-1.9C1567.6,1035.9,1578.6,1043.7,1588.3,1041.4z"/>
<path class="st0" d="M1406.5,1046.3c-24.8,11.6-40-3.4-44.2-15.2c-7.9-22.7,18.8-42.7,40.4-32.4c22.7,11.8,18.8,19.1,44.9,19.4
	c60.7,0.2,65,1.1,71.1-4.7c70.5-66.7,12.7-35.4,204.4-44.1c11.3,0.8,118.4-0.5,119.3-0.5c242.3-0.3,227.4-1.4,240.4-0.6
	c4.8,0.2,10.1,2.2,14.7,0.2c9.6-4.8,14.7-15.1,23.6-21c7.6-6.5,14-14.3,21.7-20.8c6.8-7.1,15.2-12.6,21.6-20
	c9.3-10.7,63.5-59.6,73.9-70.1c10.1-9.3,91.9-86.1,92.8-87.1c0,0,133.5-126,137.8-130.2c4.2-3.4,76.7-73.1,90.9-84.7v16.5
	c-8.2,5.9-30.3,27.8-31.3,28.7c-0.9,0.9-95,89.4-96.1,90.5c0,0-91.1,86.1-91.6,86.4c-0.9,0.9-86.6,81.9-91.6,86.3
	c-3.7,3.4-66.3,63-71.4,66.9c-5.7,4.5-63.3,60.4-71.1,66c-7.6,5.9-39.1,2.6-154.9,4.2c-2.3,0.2-166.7,0.3-167.6,0.3
	c-14.1,0.5-207.3,1.1-208.3,1.1c-7.9-0.2-11,5.6-29,22.5c-16.6,14.1-22.2,24.7-31.7,24.7c-6.8,0.3-71.9,0.6-72,0.6
	c-18,0.8-9.8,1.2-25,9C1414.3,1040.7,1410.9,1044.3,1406.5,1046.3 M1403.6,1030c1.7-16.8-9.3-23.1-16.8-22.2
	c-10.9,2.2-17.5,12.9-14.4,23.1C1377.8,1046.2,1401.6,1045.1,1403.6,1030z"/>
<path class="st0" d="M1690.5,1049c-23.1,5.3-45.5-21.6-28.2-43c18.5-21.7,52.8-7.4,51.7,16.8C1714,1035.8,1702.8,1046.5,1690.5,1049
	 M1698,1033.8c3.4-6.1,3.4-22-8.1-26.1c-16.6-6.8-33.1,21.6-13.8,31C1679.8,1041.2,1691.2,1044,1698,1033.8z"/>
<path class="st0" d="M1533.3,979.3c-4,2.8-4.5,3.1-53.5,2.5c-1.7,0.2-38.5,1.6-45-1.9c-7-4.5-11.9-11.6-19.1-15.8
	c-9.5-5-20.5-5.1-30.7-7.9c-27-9.3-30.9-36.6-9.2-50.7c6.5-4,14.4-2.2,21.6-2.3c10.4-0.2,18.5,8.8,21.6,18
	c2.6,9.5,3.4,19.4,6.2,28.7c2,6.4,14.3,22.2,27.2,21c11.3-0.8,65.2-0.5,66.3-0.5c14-0.5,25.9-25.5,40-27.6c8.7-0.9,57,0,89.7-0.8
	c11.5-0.8,187.2,0.3,217.7-1.1c15.7,0.9,183.4,0,207-0.8c9.3,0.3,15.1-9.9,30.4-23.1c0,0,56.5-53.2,60.8-57.4
	c17.5-15.1,29.6-28.4,40-37.4c9.2-9.6,34-30.6,34.9-31.5c6.4-5.3,12.1-11.2,17.5-17.4c3.9-4.3,8.8-7.6,12.9-11.6
	c23.4-23.4,44.9-39.4,44.9-39.4c3.6-3.4,5.7-8.1,9.2-11.6c20.2-21,33.1-30.9,45.9-43.9c0,0,61.3-57.7,78.2-74.2
	c16.5-14.1,105.4-100.1,111.9-104v16c-6.1,4.3-10.9,10.1-16.5,14.9c0,0-163.7,154.6-169.9,160.3c-0.9,0.9-75.6,72-92.5,87.4
	c-2.6,2.9-81,76.2-81.9,77.3c-2,1.7-69.1,66-78.8,74.3c-2.6,2.8-29.5,27.9-33.1,30.4c-4.8,3.4-11,2.5-16.6,2.6
	c-9.2-0.2-145.7,0.6-146.7,0.8c-91.6,0.5-317.4,1.4-356,1.2c-8.1-0.5-13.2,6.4-18.5,11.5C1544,969.5,1539.4,975.2,1533.3,979.3
	 M1386,912.9c-4.2,0.6-7.1,4.2-9.9,7c-6.1,11-3.1,19.4,6.5,25.1C1414,955.7,1410.3,906.5,1386,912.9z"/>
<path class="st0" d="M743.7,970c-0.9,0.2-42.2,0.2-58,0c-15.1,0.3-156.3,0.2-157.2,0.2c-4.8,0-9.5,0.3-14.3,0.6
	c-6.2-0.3-12.6-0.9-18.8-0.2c-6.4,1.1-12.7-0.6-19.1-0.2c-7.8,0.6-15.7,0.8-23.6,0.3c-5-0.6-10.2,0.3-15.2-1.1
	c-2.3-0.6-4.8-1.2-7.3-1.6v-0.8c-1.9-0.3-3.7-0.8-5.7-1.2v-0.5c-31.2-12.1-29.6-12.3-38.8-23c-2.3-5.6-2.6-11.8-1.6-17.8
	c3.3-11.8,16-25.9,40-18c15.8,5.4,17.7,23.1,23.1,35.9c3.9,8.8,7,7,50.6,7c9.5-0.2,18.9,0.5,28.2-0.5c6.7-1.2,13.3,0.6,19.9,0.5
	c0.9,0,70.3,0,78.5-0.8c0.9,0,46.7,0.8,57.7,0c5.3-0.3,46.6,0.3,57.7-0.2c71.5-0.2,171.3,0.2,178-0.5c5.1-0.5,10.1,0.8,15.1,0.2
	c8.7-1.4,17.7-0.3,26.4-0.9c9-1.7,14.3-11.9,35.1-30c69.8-69.7,68.8-59.3,71.7-85.5c2.2-5.9,4.3-12.1,9.2-16.3
	c8.8-9.6,24.4-11.5,35.7-5c15.1,7.8,19.1,28.2,7.8,40.8c-12.9,15.4-36.6,7.3-45.5,21.9c-4.3,3.3-8.4,7.1-12.3,11l-28.9,27.5
	c-12,11.9-47,45.8-47.5,46.2c-4.3,3.3-7.4,8.1-12.7,9.9c-10.4,1.9-21.1,0.6-31.5,1.1c-35.7-0.3-125.6,0.5-161.9,0.9
	C767.3,970.4,755.5,968.7,743.7,970 M414.4,951.3c18.9-3.9,16.5-32.9-2.3-33.4c-9-0.5-16.3,8.2-16.5,16.8
	C395.1,944.4,404.9,952.6,414.4,951.3 M1110.9,842.6c2.3-12.6-5.4-23-12.7-23.3c-8.5-1.7-20.6,6.1-18.6,21.4
	C1083.3,855.4,1106.9,859.2,1110.9,842.6z"/>
<path class="st0" d="M1506.5,950.4c-20,12.3-37.6,1.1-43.1-10.7c-7.6-12.9,0-30.7,13.7-35.7c6.7-2,13.8-1.1,20.8-0.9
	c9,0.2,15.2,8.1,19.4,15.2C1520.1,931.2,1517.5,941.7,1506.5,950.4 M1500,920c-2.5-2.8-5-6.2-8.8-6.8c-16.8-6.1-32.7,23.4-10.4,32.9
	C1492.5,951,1509.7,939.7,1500,920z"/>
<path class="st0" d="M1207,953.7c-35.4,11.6-57.1-27.8-26.8-48.7c7-1.4,14.3-1.1,21.3-1.2c7.6,0,14.1,5.1,17.8,11.3
	c2.8,5.1,5,11,4,16.9C1222.2,941.4,1216,950.3,1207,953.7 M1208.5,932.9c-0.5-5.7-1.6-12.4-6.5-16.1c-12.6-8.8-24.5,2-25.8,11.3
	c-2.2,9.8,6.7,20.2,16.6,19.1C1200.9,948.4,1209.3,941.3,1208.5,932.9z"/>
<path class="st0" d="M713.9,913.3c-262-1.2-231.7,6.7-252.3-12.1c-2.3-2.5-85.5-81.9-86.4-82.9c-49.7-46.1-36.8-44.1-70.5-50
	c-9.2-3.1-14.6-7.1-20-17.1c0-0.3,0.2-1.1,0.2-1.6h-0.9c-5.3-20.3-2.3-22.8-17.1-35.1c-15.5-14.7-15.7-16.3-16.1-27
	c0.2-29.2-0.6-30-1.1-104c-0.2-10.1-1.9-36.6-0.9-79.6c0.9-13.8,21.6-23.1,26.5-35.4c3.1-9,2.5-18.9,7.4-27.3
	c5-7.8,12.9-14.3,22.3-15.2c25.9-1.1,40.2,23.4,30.3,40.8c-12.7,21-30.6,12.1-44.9,22.5c-1.7,1.1-17.7,14.7-18.2,23l1.2,73.9
	c-0.6,25.6,2.3,70.9,1.4,91.9c0.2,4.5-0.8,9.8,2.3,13.7c14.4,17.5,19.9,18.9,26.8,19.9c12.9,1.2,28.2,6.4,34.1,17.4
	c9.9,21.9-2.2,22.2,20.6,41.9c16.5,16.5,53.7,51.8,79.9,77.3c0,0,34.1,32.4,35.4,33.7c12.3,10.7,1.6,12.7,73.1,10.9
	c19.1-1.2,35.7,4,38.2-6.5c0.2-2.8-0.2-60.2-0.3-63c0-3.3-1.4-170.4-1.7-202.7c1.2-93.4-15.2-45.2,63.8-128.7
	c6.4-6.7,13.5-12.4,19.2-19.6c6.8-9.3,4-21.9,10.1-31.3c10.7-18,28.9-17.5,39.3-12.7c18.2,7.6,25.1,34.1,3.1,48.4
	c-8.1,4.2-14.6,4.7-25.8,7.4c-9.5,1.9-18.2,14.4-29.6,24.1c-52.1,52.5-52.6,50.4-55.6,57c-2.2,6.8,0.3,66.1-0.3,92.7
	c0,18.5,0.8,150.4,0.9,151.3c0,8.2,0.2,71.9,0.3,74.8c-0.5,13,17.4,8.2,33.7,9.3c7.3,0.5,139.2-1.1,140.1-1.1
	c13.8,0.3,119.8,1.1,138.3-0.9c5.3-0.9,9.2-5.1,12.7-8.7c9.2-9.2,18.6-18,27.6-27.5c8.5-9.3,3.3-24.5,14.7-37.1
	c26.8-30.6,70,10.9,43.8,35.2c-7.3,7.3-11.6,9-27.9,11.3c-17.7,4.8-22.2,16.1-39.7,30.7c-19.7,17.2-11,16.5-33.2,17.4
	c-6.8,0-91.7,0.3-91.7,0.3c-5.7,0-11.5-0.3-17.1,0.3c-8.2,0.8-16.5-0.3-24.5-0.2C761.9,913.8,737.8,913,713.9,913.3 M1002.1,851.9
	c23-4.5,8.1-46.7-13.8-30.6c-7.6,5.3-9.2,17.1-3.6,24.4C988.4,851.2,995.9,853.6,1002.1,851.9 M323.9,755c9.9-8.7-4-45.3-25.8-20.6
	C289,755.5,313,766.7,323.9,755 M707.1,471.6c16.8-4.3,11.9-31.2-3.4-33.4c-10.7-1.4-19.7,10.2-17.4,20.3
	C687.5,468.1,698.1,473.8,707.1,471.6 M321.6,463.1c2.8-8.2-2.8-27.6-19.2-24.1c-8.5,2.9-13.8,12.9-11,21.6
	C295.8,474.4,317.1,476.8,321.6,463.1z"/>
<path class="st0" d="M804.1,870.6c-5.4,0.9-25,5.4-34.9-11.2c-14.6-18.8,4.2-44.4,26.2-41.7c11.8,0.9,23.1,9.6,25.6,21.4
	C824.7,852,816.2,866,804.1,870.6 M806.7,847.5c-1.7-11.6-7.9-16.8-14.3-17.2c-11.3-1.7-20.8,11.6-16.9,22
	C780.3,868.5,808.3,868.2,806.7,847.5z"/>
<path class="st0" d="M1298.1,860.7c-13.7,2.8-31.5-7.3-31.8-21.4c-0.2-11.8-3.9-20.6,13.7-30.1c14.3-6.8,31.5-4.3,40.2-10.9
	c14.4-9.9,11.2-18.3,34.5-17.2c0,0,147.9-1.1,160.9-0.5c6.5-0.2,100.1,0.3,123.1-1.1c9.9-1.4,45.5-0.3,70.9-0.9
	c9.8-0.5,13.5-10.6,40.8-33.8c16.8-16.3,8.2-1.2,12.3-130.8c3.6-84.4-1.2-104.6,5.3-113c5.9-7.6,27.3-25.6,38.5-37.2
	c16.9-17.8,30-24.2,29.8-34.3l5.7-276.4c2.6-134.1,2.3-118.4,3.3-152.4h16.3c-0.8,4.5-1.9,79.1-1.9,82.3
	c-0.3,4.2-3.1,149.9-3.4,159.7c0,0-3.6,181.3-3.6,182c-1.4,15.7,2.6,11.9-14.6,28.9c-46.2,45.8-56.8,50.3-57,60.1
	c-1.4,60.8-3.6,201.8-3.9,214.9c0.3,10.9-3.7,14.7-21.3,31c-13.3,11.3-28.2,28.6-36.5,31.5c-5.9,1.2-78.7,1.7-86.6,0.5
	c-12.4-0.6-128,0.3-129.6,0.5c0,0-53.2,0.2-54.9,0.2c-104-0.5-101.5-1.1-106.9,4.5c-15.2,14.9-11.6,7.4-19.4,42.7
	C1319.3,850.3,1309.2,859,1298.1,860.7 M1300.5,820.5c-8.8-7.1-21-1.7-24.8,9c-2,9-0.2,15.2,9.3,20.8c2.3,0.6,4.7,1.2,7.1,1.1
	C1307.7,852,1314.2,831.1,1300.5,820.5z"/>
<path class="st0" d="M1205.2,859.3c-8.2-0.8-16.9,1.9-24.7-1.9c-10.9-5.6-17.5-19.4-13.2-31.2c5.6-16.5,24.5-23,39.6-17.2
	c17.4,7.6,16,19.6,15.2,32.3C1221.5,850.5,1213.2,856.7,1205.2,859.3 M1209.4,843.6c2.8-8.5-2.8-23.4-12.7-24.2
	c-14.9-2.8-28.6,19.9-10.6,31.8C1191.6,855.3,1204.9,854.8,1209.4,843.6z"/>
<path class="st0" d="M1407.3,856.5c-4.3,2.6-9.8,2.5-14.6,2.2c-5.7-0.3-11.9,0.6-16.9-2.5c-21.3-12.7-15.5-45.9,12.4-50
	c11.8-1.4,16.9,1.4,38.6,2.6c249.6,0.9,163.1-2.5,296.3-1.9c12.4,0.2,12.9-1.9,22-10.2c43-39.9,45-42.1,45.5-48.4
	c0.2-1.4,3.1-175.8,3.1-176.1c0.6-15.1-0.9-45,3.6-51.5c2.5-3.7,43.8-42.5,44.7-43.3c12.6-13,24.2-18.9,24.2-30
	c0,0,2.9-169.2,6.2-296.3c0-0.9,1.4-139.7,5.3-150.5h20c-6.2,9.5-7.1,9.3-7.3,24.7c0,11.6-2.5,135-2.5,135.2
	c-0.6,9.5-3.7,190.7-4.3,199.7c-0.2,2.3-1.6,73.3-1.2,88c0.5,16.9-6.2,13.5-67.2,74.2c-7,7.1-4.5,5-6.5,95.1
	c0,0.8-2.5,132.4-2.5,134.2c-0.3,7.1-6.2,11.9-11.2,16.5c-7.4,7.3-14.7,14.9-22.5,21.9c-22.8,19.1-24.2,29.8-41.9,30.3
	c-0.9,0-87.4,0.3-95-0.5c-14.9-0.8-133.3,0.3-133.3,0.3c-12-1.1-48.3,0.5-57.7,0.2c-13,0.5-10.7,0-20.2,14.6
	C1419.7,842.9,1415.4,851.7,1407.3,856.5 M1406.4,838.2c0.6-12.1-6.5-23.6-18.9-21.3c-4.8,0.8-8.1,4.8-11.2,8.2
	c-2,4.3-3.6,9.5-2,14.3C1379.2,856.7,1405.3,854.3,1406.4,838.2z"/>
<path class="st0" d="M909.9,794c-271.6-1.1-227.7,9.8-262.3-22.8c-13.2-13.2-7.4,4-9.8-143.1c0.3-14,0.6-14.1,10.2-24.1
	c10.7-10.4,11.5-11.9,22.2-11.9c66.4,0.9,58.7-0.2,69.7-10.7c3.3-3.1,6.2-7.1,5.7-11.9c0-2-0.9-46.6,1.1-50.9
	c2-4.3,3.9-5.9,21.6-23.3c7-7.1,6.7-8.8,6.7-18.6c-1.2-69.1,2.2-75.3-2.8-81.3c-1.2-1.6-25.1-25-26.7-26.4
	c-1.1-0.9-46.6-45.2-63.2-61.8c-12.4-11.9-17.8-14.1-17.1-31.3c1.4-22.2-1.2-24.5-4.7-28.4c-8.7-9-63.3-61.8-63.3-61.8
	c-0.9-0.9-108.5-106.3-115.5-112.7c-18.8-18.3-20.3-23.3-32.3-22.7c-10.9,0.6-167.5,0.6-168.5,0.6l-160.9,0.5
	c-6.8,0-14.1,0.8-20.3-2.5C90.6,43.6,71.1,20.6,55.3,7c-2.3-2-4-4.5-6.1-7h18.2c6.2,7.8,21.9,22.7,25.8,26.1
	c14.4,12.9,8.4,13,29.6,13C136,39,358,38.2,376.5,38.6c85.7-1.2,85-1.2,89.7,1.4c5.4,2.9,93.1,90.5,144,139.1
	c0,0,57.4,56.2,61.3,59.9c14,12.9,4.5,26.7,8.7,45c1.7,5.6,102.4,102.3,103.4,103.2c3.7,3.4,5.4,8.4,5.3,13.3
	c-0.2,25.9,0.8,51.8,0.3,77.8c0,15.5,0.8,14-18.6,33.5c-10.6,10.9-11.2,9.8-11.2,24.2c0.5,47.2,1.7,42.4-9.5,53.5
	c-15.1,14-9,13.8-38.3,13.8c-33.7,0.9-42.4-2.2-50.1,5.4c-13.7,13-9.5,9.9-9.2,66.4c0,0-0.2,62.9,0,74.8c0,10.9,6.1,12.6,14.7,21.9
	c12.7,11.8,8.7,10.4,26.7,10.7c13.2-0.6,64.7,1.7,87.1-0.2c0,0,121.4,0.2,157.1-0.3c107.2,0.5,103.5,0.6,108-2.8
	c16.5-12.3,16.3-21,17.7-26.5c1.6-7,3.1-13.8,5.1-20.6c3.4-14.7,20.5-23.1,34.6-19.9c18.2,3.4,32.1,26.4,15.1,45
	c-5.4,5.7-13.5,9.2-40.4,13.8c-11.3,2.2-16.8,14-26.2,19.6c-5.7,3.6-12.9,2-19.2,2.3c-8.7,0.5-97.5,0.2-97.5,0.2
	C927,794,918.4,793.7,909.9,794 M1112,747.1c1.9-5.6-0.6-17.4-8.5-22.8c-8.5-4.3-21,1.9-22,11.6l-0.8-0.5c0,3.6-1.1,7.6,0.6,11
	C1086.8,759.1,1106.9,761.2,1112,747.1z"/>
<path class="st0" d="M2064.9,767.3c-3.4,21.3-34.3,32.1-50.4,14.3c-10.4-10.6-10.6-32,11-42.1c3.6-1.1,7.1-2.3,10.9-2.5
	c8.1,0.2,16.5,2.9,22,9.2C2063.5,751.8,2066.3,759.7,2064.9,767.3 M2051.2,774.4c1.4-5-0.8-9.8-1.9-14.6c-5.1-20.5-31.5-9.3-31,8.4
	C2019.9,785.3,2045,790.4,2051.2,774.4z"/>
<path class="st0" d="M235.6,760.5c-19.1,20.2-57.4,2.8-49.4-26.5c8.5-19.2,27.6-23.4,43.5-14.6c7.8,4.7,13.3,13.2,13.3,22.3
	C243.8,748.8,240.1,755.3,235.6,760.5 M229.1,752.5c3.6-14.6-5.9-27.8-19.4-24.7c-8.7,2.8-14.4,13.2-11.2,21.9
	C202.4,760.3,218.8,768.1,229.1,752.5z"/>
<path class="st0" d="M435,756.3c-10.2,15.4-38,18.2-50.6-3.1c-0.3-0.3-1.1-1.1-1.4-1.4c-0.6-3.9-8.1-24.7,15.1-35.2
	c19.1-8.7,43.3,6.5,41.4,28.2C438.4,748.7,437.5,752.9,435,756.3 M423.8,749.1c1.2-17.2-9.5-24.5-19.7-21.6
	c-10.2,2.2-14.9,15.8-10.6,23.9C400.7,764.6,421.4,763.7,423.8,749.1z"/>
<path class="st0" d="M1012.8,763.9c-13.7,7.9-34.5,1.6-41-14c-8.5-19.1-1.4-30.1-17.7-44.1c-4.8-4-9-8.7-13.5-13
	c-3.6-3.7-7.6-8.1-7.6-13.7c0.3-390.8-1.9-379.5,3.4-387.2c8.1-12.3,7.4-0.3,7-70.9c0-11.8-3.4-11.9-11.8-21
	c-14.9-14.1-11.8-14.1-24.5-13.8c0,0-49.4,0-52.9,0.2c-13,0-16.9-0.2-29.3-12.7c-11.6-12.3-61.1-59.9-72.9-72
	c0,0-21.6-20.8-87.1-85.2c-5.1-5.3-10.7-10.1-15.1-16h18.6c9,11.8,37.6,36.9,73.1,72.9c0.9,0.9,70.1,68,73.9,72
	c6.1,6.4,12.7,11.8,18.6,18.3c4.3,4.5,8.8,10.1,15.7,10.6c29.2,0.9,66.4-2.9,75.3,1.9c5.1,2.9,27.9,26.1,28.9,27.2
	c7,7.6,2.9,12.3,4.2,72.9c0,4.2,1.2,8.8-1.1,12.6c-7.4,12.9-11,0.9-8.7,48.9c-0.6,8.7-0.6,145.7-0.6,146.7c0,0,0.2,33.2-0.2,108.9
	c0.2,81.6-1.1,85.4,4,91.3c4.5,5.3,9.9,9.5,14.7,14.6c3.1,3.3,6.7,6.5,11.2,7.9c16.6,5.3,53.5,2,50.7,36.3
	C1026.6,752.1,1020.4,759.7,1012.8,763.9 M1012.8,736.7c-3.3-12.7-14.4-15.8-23.3-9.3c-9.9,7.9-9.2,18.9-3.9,24.4
	C994,762.6,1018.4,760.1,1012.8,736.7z"/>
<path class="st0" d="M821.8,760.6c-14.1,13.5-39.9,6.8-47-12.1c-3.4-10.7,0.6-23.4,9.9-29.8c7.8-6.1,18-6.5,27.3-8.5
	c20.3-4.8,9,3.1,81-67.8c13.8-13.5,9.8-11.9,10.6-25.8c0-0.9,0.3-81.3,0-91.9c-3.4-171.2,6.1-181.1-5.4-191.8
	c-6.4-6.1-54.8-53.2-55.7-54.2c-21.4-21-17.5-15.8-18.2-41.7c-0.8-21,13-1.2-109.3-122.6c-4-3.6-109.9-105.5-115.9-114.1h18.8
	c8.2,11.2,19.1,20.2,29.2,29.5c8.5,7.9,88,87.2,97.2,95.1c96.7,94.7,94.2,90,93.9,98.7c-0.3,33.8-1.7,31.3,10.4,42.4
	c0,0,55.6,54.3,60.8,59.4c9.2,8.8,8.2,10.9,8.2,27c0,7.3,0,153.2,0,153.3c0,5.1,0,125.2-0.2,126.9c-0.9,8.2-16.6,19.6-23.4,26.7
	c-0.9,0.9-36.3,36.3-41.6,40.8c-13,13.3-15.5,10.1-21,43.1C830.4,750.2,826.9,756.3,821.8,760.6 M814.9,754.7
	c7.6-7.6,1.9-22.7-3.9-25.9c-10.2-7.3-25.8,1.6-24.8,15.7C787.6,758.1,806.4,765,814.9,754.7z"/>
<path class="st0" d="M724.3,760.5c-8.8,8.1-29.8,14.7-46.7-9c-7.3-20.3,6.7-34.1,19.6-37.1c27.9-2.5,36.9,15.4,36.3,27.3
	c0,2.6-0.6,5.1-1.1,7.6C730,753.5,727.7,757.5,724.3,760.5 M719.2,745.4c-0.3-8.4-5.7-17.8-14.9-18.6c-11.5-1.1-20.2,12.4-16.5,22.8
	C695.4,767.6,720.7,761.9,719.2,745.4z"/>
<path class="st0" d="M1501.8,763.1c-19.9,8.8-44.7-10.7-39-31.2c4.3-15.2,17.5-21.7,30-21.7c19.1,1.1,32.7,21.1,45.5,21
	c0.9,0,91.6,0.3,114.7-0.5c9.2-0.2,39.4,1.6,45.5-3.1c2.9-2.3,25.6-23.3,30.4-29.3c2.9-3.4,3.4-8.1,3.3-12.4
	c-0.2-10.1,0.8-20.3,0.2-30.4c0.8-27.9,1.7-95,2.8-173c0-1.1,3.3-153.3,3.3-153.5c0.6-15.2,4.2-12.6,20.2-29.6
	c0,0,40.5-38.8,43.1-41.1c10.1-9.9,8.1-11,8.8-47.5c0-7.4,2-107.1,2-107.1c0.2-2.6,1.9-90.8,1.9-103.2h16.1
	c-0.2,6.4-1.4,79.9-2,95.6c-1.9,163.4-1.7,156.9-6.8,162.2c-7,7.4-35.7,34.6-36.8,35.4c-40.8,37.4-29.5,21.1-32.1,91.1
	c-0.5,6.1-2,136.1-2.2,139.2l-2.9,166.7c-0.3,16.1-6.7,14.7-30.6,39.6c-15.1,14.9-11.2,15.2-76.7,13.7c-0.9,0-105.4-0.5-110.5,2.6
	C1520.8,752.1,1511.9,758.6,1501.8,763.1 M1502.8,730.7c-2.3-2.9-4.7-6.2-8.5-7.3c-12.1-3.6-19.7,6.5-20.2,11.6
	c-0.8,4.5-2,9.5,0.6,13.7C1482.9,762.9,1512.5,759.8,1502.8,730.7z"/>
<path class="st0" d="M1214.4,759.7c-12.4,9-29.3,9.2-42.4-5.7c-10.9-12.4-5.1-33.8,12-40c10.9-3.9,22.3-5,33.5-8.1
	c5.6-1.7,9.3-6.5,13.5-10.2c9.5-8.5,7.3-7.3,7.6-62.9c0.3-10.6-13.3-16.9-26.4-32c-5.7-7.3-1.1-147.9-1.9-211.4c0,0,0.2,3.1,2-255.6
	c-0.2-11.5,1.4-11.5-8.2-20.8c-18.2-16.3-62.7-62.5-76.2-74.5c-19.1-19.6-35.7-35.7-35.7-35.7c-0.2-0.6-0.6-1.9-0.8-2.5h18
	c5.9,8.1,54,54,78.1,78.2c25.3,24.4,29.5,27.9,35.4,34.6c5.7,6.4,3.3,5.9,3.3,103c0,0-1.1,154-1.7,185.5
	c0.2,16.6-1.1,183.8-1.1,184.7c-0.9,15.1,30.1,26.7,29.3,42.5c-1.4,86.3,2.5,54.5-19.6,82.9c-3.6,4.8-4.5,11-7.9,28.9
	C1224,748,1220.1,754.9,1214.4,759.7 M1207.9,750.1c1.6-2.8,2.3-13.8-6.4-22.5c-12.7-9.3-31.2,8.5-23.1,22
	C1183.7,759.7,1200.4,763.4,1207.9,750.1z"/>
<path class="st0" d="M220.5,673.2c-22,4.2-37.2-11.9-36.6-28.2c0.3-12.6,13.7-31.5,38-23.9c21.9,7.1,17.8,23.9,18.2,29.6
	C240.9,661.9,230.8,671.1,220.5,673.2 M225.7,643.1c-2.5-4-5.3-8.7-10.1-9.9c-22-4.3-28.6,27.8-7.3,32.7
	C216,668.7,232.3,663.8,225.7,643.1z"/>
<path class="st0" d="M805.9,672.2c-21.3,3.7-42.7-21.9-28.9-41.6c4.8-7.1,12.4-12.3,21-13.7c16-4.3,44.2,21.1,51.8,18.3
	c4-1.4,20-18,21-18.9c3.3-3.4,3.6-8.5,3.4-13c-0.2-8.7-0.6-119.7-0.6-122.1c0-0.9,0.2-86.3,0-102.3c-0.3-13.3,3.9-17.1-5.9-26.8
	c-72.6-72-82.3-76.5-82.7-86.6c-3.1-44.4,10.6-21-31.5-64.3C739,187.5,603.1,53.7,589,41C588,40,552,4.5,548.9,0.3h18.9
	c5.7,8.4,70.5,70,71.4,70.8l94.8,92.7c78.8,78.4,63,52.8,64.4,96.8c0.2,4.8,3.4,8.7,6.7,11.8c16.6,15.1,31.7,31.7,48.1,46.6
	c47.6,46.6,32,19.9,34.8,101.7c1.1,205.5,0.9,195.1-3.9,200.5c-4.5,5-24.7,25.6-31.2,29.3c-7.3,4.2-14.6,8.8-22.5,11.9
	C822.4,665.9,814.9,671.4,805.9,672.2 M806.1,661.6c6.7-1.9,12.1-8.4,11.5-15.5c-1.2-26.4-31.3-20.3-31.8-2
	C784.5,654.6,796.2,663.9,806.1,661.6z"/>
<path class="st0" d="M727.6,661.6c-16.9,21-57.6,11.2-51.8-23.9c1.7-9.3,14.9-22.8,32.4-20.3c28.4,4.2,30.9,4.3,39.4-4.7
	c15.7-15.2,18.3-21.4,31.7-21.6h52.1c5.7,0.5,11.9-3.7,12.9-9.6c0.8-5.3,0.2-10.7,0.2-16c-0.2-223,4.2-192.6-11.5-208.7
	c-34.6-34.8-74.2-69.4-77.3-78.7c-2.6-12.9,4.2-22-7-33.1c-5.1-5-36.5-35.4-47-45.8c0,0-92-89.5-92.7-90
	C607.6,108,501.4,3.9,500.5,2.9c0-0.6-0.2-1.9-0.3-2.5h17.7c7.9,9.8,16.8,18.6,26.4,26.7l141.2,138c2,1.9,69.2,67.5,73.9,71.9
	c4,3.9,8.8,8.2,9.2,14.1c1.1,19.9-1.6,23,7.1,31c0.8,0.6,76.4,74.2,77,74.6c10.1,10.1,4.2,16,6.2,64.7c0.3,6.7-0.5,13.2-0.3,19.9
	c0,6.1,0.6,11.9,0.5,18c-0.8,15.7,1.1,122.9-1.7,129.1c-2,4.7-6.1,7.9-9.9,11c-4.5,3.4-10.6,3.3-16,3.1c-2.3-0.2-51.1-0.2-54.9,1.1
	c-3.3,1.2-33.2,31.7-34.1,32.6C735.5,643.7,733.5,653.8,727.6,661.6 M715.5,638.9c-6.1-18.8-33.4-8.8-29.6,9.6
	c1.4,8.1,9.5,14.6,17.7,13.7C712.5,662.2,722,652.1,715.5,638.9z"/>
<path class="st0" d="M1012.3,668.4c-33.1,17.2-68.9-35.9-15.7-54.8c9.8-3.4,16.1-12.1,23.7-18.8c5.9-5.9,12.1-11.2,17.7-17.4
	c3.9-4.2,4-10.2,3.9-15.5c-0.6-10.1,0.3-20.2,0-30.3c0-7.1,0.2-215.6,0.8-232c-1.4-115.2,4-114.2-4.5-122.6
	c-0.9-0.9-79.6-77.8-84.6-82.9c-7.3-7.3-89.5-88-93.4-93.6h18.6c4,5.4,57.1,57.3,58,58.2l113.3,111.3c9.2,8.5,7-3.6,6.8,174.3
	c0,0-0.9,66.7-0.9,72.9c0.5,19.9-0.3,121.2,0.2,145.7c-0.3,16.1,0.6,16.8-23.1,37.9c-10.4,10.6-6.4,11.5-5.4,29.5
	c0.3,7.9,2.3,16-0.8,23.6C1024.6,660.7,1018.7,665.5,1012.3,668.4 M1011.9,648.1c0.2-8.8-4.7-20.5-16-20.8
	c-14.7,0.6-22.2,18.8-12.1,29.2C991.4,664.9,1009.2,663.6,1011.9,648.1z"/>
<path class="st0" d="M1512.5,662.1c-5.3,4.8-12.3,6.5-18.9,8.1c-5.1,0.6-9.9-1.9-14.4-3.6c-15.2-7.9-13-18-14.1-28.1
	c-0.9-8.4,4.5-16.5,12-20c6.1-3.7,23.6-2.8,27.8-1.9c5.4,1.6,9,6.5,14.6,7.9c10.1,3.6,11.6-1.1,56-43.9c4.3-3.9,23.7-21.9,27.3-26.7
	c3.1-4.2,3.1-6.5,2.9-35.5c0.5-37.1,3.1-194.8,3.1-195.1c0.3-21-5-3.6,99.2-108.2c30.3-30.6,43.6-38.3,44.5-48.1
	c0.6-6.4,1.2-53.7,1.1-58.7L1756,0.5h14c-0.5,14.1-1.4,79.3-1.9,88c0.3,6.5-1.4,76.2-1.7,82.4c-0.3,5.4-4.2,9.8-7.9,13.2
	c-2.8,2.6-86.3,83.8-89.2,86.9c-4.3,3.7-30.9,29.2-39.6,38c-5.7,5.3-5.3,7.9-5.4,75.7c-0.8,16.6-2,150.8-2.3,158
	c-0.9,20.6,2.2,9.8-29,42.5c-9.2,7.6-43.5,42.4-48.4,46.2c-5.6,4.5-10.4,9.9-15.5,14.9C1522.8,651.5,1518.7,657.9,1512.5,662.1
	 M1504.3,650.9c4.8-6.8,1.4-23-9.6-26.2c-17.5-3.7-30.9,20.5-12.7,31.7C1485.8,658.6,1496.5,662.1,1504.3,650.9z"/>
<path class="st0" d="M1223.6,653.7c-16,32.3-63,13.5-55.9-16.3c2.9-15.1,10.2-18.3,9.9-33.1c0-0.9,0.6-60.1,0.8-61.5
	c-0.2-103.7,1.1-178.9,1.1-180c-0.2-248.2,7.1-213.9-11.2-232.6c0,0-85.8-84.6-114.4-112.8c-5.3-5.7-11.8-10.6-16.3-17.1h24.8
	c3.6,4.7,97,97,97.9,97.9c5.7,5.1,32.7,31.2,36.3,36.6c4.2,6.5,2,56.6,1.9,59.6c0,0-0.8,183.9-1.2,206.4
	c0.6,18.2-1.6,157.8-0.9,197.9c0.9,8.1,7.8,10.9,22.3,25.6C1225.6,632.1,1227.7,644.1,1223.6,653.7 M1207.4,635.2
	c-0.8-1.1-7.4-14.6-21.7-6.5c-2.5,1.9-4.3,4.2-6.4,6.4C1165.1,664.7,1220.5,674,1207.4,635.2z"/>
<path class="st0" d="M1124.5,654.1c-8.4,19.7-40.4,25-53.9,0.5c-3.9-7.3-5-23.6,10.7-34.1c8.1-5.4,21.4-5.7,36.5-9.6
	c4.7-1.1,8.4-3.1,27.8-23.4c2.9-3.1,4.8-7.3,4.3-11.6c-0.5-21.4,0.6-42.8,0.3-64.4c0-2.5,1.6-286.8,1.7-295.5
	c-1.4-29.8,4.7-40.5-4.8-50.1c-1.7-1.7-77.3-76-92.2-90.3c-33.8-34.5-68.1-65.8-75-75.3H999c2.3,2.9,4.5,6.1,7.3,8.4
	c2.6,2.2,59.4,58,60.4,59c55.4,55.4,66.4,65.3,88.5,87.5c13.8,13.8,12-0.2,10.9,104.4c0.2,2.6-1.1,198-1.1,199
	c-3.3,66,4.7,124-5,132.8c-21.6,21-26.7,24.4-28.7,32.7C1128.9,634.3,1128.4,644.7,1124.5,654.1 M1112.1,646.9
	c0.3-8.2-7.9-22.8-19.1-18.2c-5.1,2.3-9.8,6.1-12.3,11c-0.5,3.4-3.9,11.6,6.8,19.7C1097.1,665.9,1113.8,659,1112.1,646.9z"/>
<path class="st0" d="M1302.7,669c-15.1,4.3-41.1-4.7-36.2-35.5c4.7-16.3,9.9-25.1,6.4-30.7c-2.6-4.2-20.5-19.9-26.4-26.4
	c-12.9-13.8-4.2-13.2-7.6-58c1.7-14.3,0.9-125.9,1.7-140.9l2.5-303.1c0.6-24.7,0.3-49.2,0.8-73.9h13.8c0.6,12.4-1.1,127.7-1.1,128.7
	c0,0.9-1.6,172.7-1.1,178.2c-1.2,95.4-1.7,178.8-1.7,180.6c0,1.6-0.9,50.9,0,61.6c0.2,19.6-2.6,10.9,19.1,33.5
	c18.8,20.2,47,40.5,49.5,48.7c2.3,7.1,2.8,15.5-1.1,22.3C1317.3,661.3,1310.8,667.2,1302.7,669 M1308.8,646.9
	c-0.2-5.4-1.1-11-3.9-15.7c-6.4-7.1-16.9-8.4-25.5,2c-7,9-2.6,23.1,9.9,26.2C1297.7,662.2,1308.8,656.3,1308.8,646.9z"/>
<path class="st0" d="M1614.7,657.9c-12.6,14.1-31,13.5-43.1,3.3c-16.3-14.4-9.5-43.6,15.8-47.6c33.2-5.4,29.6-6.2,41.1-17.5
	c9.2-8.8,4.8-12.1,6.5-80.7c0.3-4.8,2.8-153.3,2.8-154.3c-0.3-4,0.3-35.4,1.2-39.1c2-7.1,9.5-10.9,23-24.5
	c20.5-20.5,91.6-88.5,112.4-108.3c13.5-12.9,5.3-12.1,10.7-147.1c-0.5-14,0.6-27.8,0.5-41.6h14.3c-0.8,13.2-1.6,93.9-2.6,119.8
	c-2,72.6,4.8,60.7-18.8,82.4c-22.2,22-93.9,90.6-93.9,90.6c-27.9,26.8-29.5,28.4-30.1,34.1c-0.8,17.2-1.9,78.1-1.9,79
	c0,1.6-1.4,107.6-1.4,109.9c-0.8,75.1,0.2,76-5,82.3c-5.1,6.2-11.6,11-16.9,17.2c-5.3,6.4-5.1,15.1-7.1,22.7
	C1620.5,645.1,1619.9,652.9,1614.7,657.9 M1604.1,646.1c-0.3-4.3-1.7-8.5-2.8-12.7c-2.2-3.1-4.2-6.7-8.2-7.8
	c-16.8-5.3-31.3,20.2-14.4,31.2C1590.4,665,1604.4,655.7,1604.1,646.1z"/>
<path class="st0" d="M1697.2,667.6c-18.5,3.9-35.7-9.5-35.2-26.4c-0.3-22.3,27.5-36,45.8-22.8c15.4,10.9,16.9,28.6,3.1,42.1
	C1707.1,664.1,1702.2,666.3,1697.2,667.6 M1693.3,658c7.8-1.6,13.7-9.6,12.1-17.4c-2.6-29-36.9-16.8-32.7,3.6
	C1673.9,653.5,1684.3,659.7,1693.3,658z"/>
<path class="st0" d="M1410.7,664.9c-7.3,4.8-27.2,4.2-33.1,0.3c-13.5-8.4-16.6-24.4-9.6-35.9c5.7-9.2,26.5-25.1,32.9-31.5
	c10.2-9.3,19.7-19.4,29.8-28.9c2.5-2.5,5.3-5.3,5.9-9c2-21.7-0.9-39.7,3.3-46.6c3.6-5.3,15.5-16.9,21.7-19.7
	c7-2.6,41.9-2.2,49.4-1.9c6.4,0.5,12-0.2,23.6-14.1c2.8-3.3,3.1-7.9,3.1-12.1c0-0.9,0.8-66.6,1.4-94.8c2.5-103-3.3-95.4,10.7-108
	l111-107.6c16.5-16.1,11.2,2.8,14.6-154.6h13.3c-0.2,23.6-1.1,82.4-1.1,83.3c-3.6,78.4,9.5,51.1-32.4,94c-4.5,4.2-96.8,93-99.5,98.1
	c-2.2,4.7-2.8,83.7-2.6,86.9c0,0.9-0.2,36.5-1.2,65.3c-0.5,56.8,1.6,48.9-9.8,60.7c-17.1,15.4-10.6,13.8-37.9,14.6
	c-29.5,0.8-34.6-1.6-40.2,3.9c-12.6,11.8-12.6,12.9-12.4,23.3c0,0.9,0.9,30.4-1.9,37.1c-1.7,3.4-26.8,27.2-27.8,28.1
	c-7.8,7.4-11.6,8.7-9.3,21.3c2.3,12.1,11.6,3.1,7.8,34.8C1419.6,657.4,1415.4,661.9,1410.7,664.9 M1405,632
	c-3.6-6.4-11.8-8.5-18.3-5.9c-19.1,8.4-10.4,35.2,7.8,33.4C1403.7,659.4,1414,647.5,1405,632z"/>
<path class="st0" d="M2423.4,576.9c-18.2,0.9-30.9-13-30.4-26.2c-0.3-15.1,13.8-28.2,28.7-27.9c24.5-0.8,41.1,29.5,18,47.8
	C2435,574.2,2429.1,575.9,2423.4,576.9 M2424,568c7.3-0.6,14-7.1,13.5-14.7c-0.6-3.9-1.9-7.4-2.6-11.3c-2.6-15.7-31.7-11.9-31.7,8.7
	C2402.6,561.2,2413.8,569.9,2424,568z"/>
<path class="st0" d="M819,571.4c-22.7,17.5-65.8-10.6-36.5-45c28.2-31.5,21.9,10.6,21.9-142.6c0.3-5.1-2.9-9.5-6.7-12.7
	c-6.7-6.1-12.6-12.7-19.4-18.5c-77.4-74.8-60.7-55.1-63.3-86.9c-0.6-5-4.2-8.7-7.4-11.9c-12.3-10.9-23.1-23-35.4-33.8
	c-0.9-0.9-103.7-101.7-110.3-108c-7.6-6.7-86.4-84.9-90.2-87.7c-6.7-5.1-96.2-2.2-161.1-2.3c-180.8-2.8-183.1,5-195.1-5.1
	c-5.9-4.8-11.3-10.2-16.1-16.1h18.3c8.2,12.3,15.7,9,35.9,9.3c8.1-0.3,67.4,0.2,72,0c16-0.5,94.5-0.2,94.5-0.2
	c5.6-0.5,47.3-0.3,48.3-0.3c0.6,0,91.4-0.6,97.6-0.5c8.8,0,13.2,4,23.3,13.8l50,48.6l135.6,132.2c4.8,4.3,48,46.2,50.7,49.5
	c6.8,8.5,2.5,19.9,4.3,29.6c2,8.1,1.2,3.9,83.5,85c8.2,8.8,5,12.3,5.7,35.1c0,0.9,0.5,80.7,0,104.1c-0.3,14.1,10.4,25.1,12.6,38.8
	C832.6,555.8,827.2,565.8,819,571.4 M818.2,552.2c0.9-10.6-6.8-21.1-17.2-20c-10.9,0-23.1,19.6-8.1,30.7
	C801.6,569.7,817.7,564.9,818.2,552.2z"/>
<path class="st0" d="M718.1,573.6c-13.2,7.6-31.7,2.2-39.6-10.6c-6.8-10.2-4.8-25.3,4.2-33.5c13.8-14.4,62.9-53.9,62.7-65.2
	c1.2-51.1,4-30.4-37.1-73.9c-86.9-90-69.8-49.8-72.3-113.3c-0.2-5.4-2.9-10.2-25.1-29.8c-0.9-0.9-61.5-60.4-62.5-61.3
	c-7.9-7.3-86.6-84-87.4-84.9c-32.6-32.1-0.3-17.4-168.1-20.5c-4.8,0-9.5,0.8-14.1,0.5c-10.4-0.9-20.8-0.3-31.2-0.5
	c-9.9,0.9-153.5,0.6-154.4,0.6c-12.9,0.2-14.9-3.6-40.2-28.4C52,52,3.7,5.4,0,0.6h18C22.7,7,82.1,64.6,86.9,67.5
	c4.3,2.5,16.1,1.7,106.5,1.2c2.2,0,247.1-0.3,247.1-0.3c9.6,0.6,13,7.4,36.2,29.5c6.8,5.6,53.2,51.7,56.6,55.1
	c21.9,21,108.6,105.7,111.7,108.8c2.9,2.8,5,6.4,5.3,10.4c2.9,44.5-5.6,36.6,10.6,53.4c5.4,5,92.7,89.5,96.2,94
	c3.1,3.9,2.5,9,2.6,13.7c0,12.3,0.9,24.7,0,36.9c-0.3,5.7-2.2,6.8-28.2,32.6c-7.4,7.4-9,8.2-6.1,17.8c7.4,20,9.8,28.6,6.8,36.9
	C729.4,564.3,724.1,569.9,718.1,573.6 M716.7,557.2c4.2-12.9-10.9-30.9-23.7-21c-6.5,5-9.5,14.6-6.2,22.3
	C693.9,571.4,712.2,570.7,716.7,557.2z"/>
<path class="st0" d="M1105.3,574.2c-32.4,6.2-50.3-32.6-23.1-50.3c11.8-7.1,28.4-5.3,37.9,4.8c9.3,9.6,9.8,26.7,0.5,36.5
	C1116.5,569.9,1111.2,573,1105.3,574.2 M1110.6,556.1c1.6-5-0.2-10.1-1.6-14.9c-2.5-2.8-4.5-7-8.7-7.6l0.2-0.6
	c-1.4-0.3-2.9-0.5-4.3-0.8c-2,0.6-4,1.2-6.1,2c-3.1,2.6-6.7,5-9.5,7.9c-6.1,17.4,7.1,24.7,15.7,24.4
	C1102.5,566.3,1108.9,562.3,1110.6,556.1z"/>
<path class="st0" d="M1013.6,572c-20,11.5-47.8-6.1-43.3-29.6c3.9-13.2,13.8-23.1,20.3-35.1c2.6-5.1,1.7-11,1.7-16.6
	c-0.6-334,6.5-293.5-12.9-312.3c-35.7-36.2-14.9-16.5-90.6-22c-21.7,0.3-28.4,2.5-37.1-5.4c-2.6-2.2-63.3-61.8-64.3-62.7
	c-28.7-29.2-81.8-79.6-88.5-88h19.2c6.5,8.8,29.6,30,42.2,43c14.6,15.7,77.6,75.6,91.6,90c13.8,13.3,9.6,11.2,30.9,11.6
	c18.3,0.5,68.1-1.6,77.6,0.5c5.3,1.2,7.6,2.3,38.2,33.5c10.9,10.6,7,11.3,8.1,44.9c-0.2,9.3-0.6,268.6-0.6,273.6
	c-0.2,17.2,11,21.6,19.7,39c4.8,9.6,2.5,21.6-4.3,29.6C1019.5,568.5,1016.5,570.3,1013.6,572 M1011.9,554.2
	c1.7-4.5-0.6-9.2-1.6-13.5h-0.5c-1.2-7-9.5-11.2-16-9.2c-20.3,5.6-16.9,32.7,1.9,33.2C1002.7,565.2,1009.5,560.7,1011.9,554.2z"/>
<path class="st0" d="M1411.5,568.5c-32.6,22.2-70.9-29-24.8-50.4c20-9.8,10.9-3.9,32.4-24.4c0.9-0.9,18.5-15.8,18.9-25.6
	c0,0,1.9-173.7,2.2-180.8c0,0,1.6-111.3,2-134.6c-0.2-10.4,0.6-103.5,2-112.5c0.8-5.1-1.1-10.1-1.1-15.2c-0.5-8.2,0.9-16.5-0.5-24.5
	h15.7c0,6.4-0.6,12.6-0.3,18.9c0.3,4.3-0.2,8.7-1.4,12.7c-1.6,5,0.9,9.8,0.8,14.7l-0.9,66.3L1455,257c-0.6,6.2-2,186.4-2.5,196
	c-0.5,20.2,1.4,25.3-5.1,32.1c-8.5,9-22.7,21.1-24.7,25.5c-3.1,7.4,2.3,22.7,1.6,36.9C1423.8,556.1,1418.6,564,1411.5,568.5
	 M1406.2,537.4c-13.8-15.1-28.1-2.6-29.6,8.2c-1.6,9.6,7.1,19.7,16.9,18.9C1402.3,565.5,1416.2,556.8,1406.2,537.4z"/>
<path class="st0" d="M1299.3,573.1c-15.4,3.4-29.2-10.2-31.2-16.3c-6.8-19.7,7.1-33.5,18.5-36.8c28.6-8.7,27.2-0.5,44.2-16.5
	c10.7-10.1,7.4-11.2,8.4-57.3c-0.3-23,2.8-20.2-10.1-32.9c-0.9-0.9-41.6-40.7-42.5-41.7c-13-14.7-16.5-11.5-16.1-31.3
	c0.6-14.6,0.3-91.9,1.4-113.8c0.2-41.9,1.9-181.7,1.6-188.3c0.3-12.6,0.2-25.3,0.6-37.9h14.1c-0.2,5.9-2.6,251-2.6,251
	c0,0.9-0.2,75.3-0.5,85.2c0.5,17.4-2.2,11.5,14,28.4c51.5,53.4,55.2,48.7,54.6,62.5c0,0.9-0.3,66.6-1.6,70.8
	c-3.9,10.9-16.8,14.7-20.5,25.6c-7.8,20.8-2.8,28.2-14.7,41.7C1312.3,570.3,1305.5,571.7,1299.3,573.1 M1304.1,535.7
	c-7.6-7.1-19.2-3.6-24.2,6.2c-6.8,18,7.4,24.7,15.2,24.7C1308.3,567.5,1317,550.5,1304.1,535.7z"/>
<path class="st0" d="M1503.8,570.7c-23.3,1.4-25.5,0.5-33.2-8.4c-12.1-15.1-5.4-33.1,8.4-40.5c25.5-16.5,56.8,15.8,40,37.6
	C1515.3,564.4,1510.4,569.6,1503.8,570.7 M1509,553.3c1.6-6.5-1.9-25-14.1-24.7c-10.4-0.8-19.1,9.8-18.2,19.7
	C1477.5,566.3,1504.8,568.9,1509,553.3z"/>
<path class="st0" d="M1126.1,460.8c-8.2,21.4-39.3,24.8-53.4,2.5c-10.7-16.8,4.7-32.6,14.1-47.3c6.1-8.7,4.8,5.3,5.6-173.2
	c0.3-4,0.8-60.1,0.6-65.3c-0.2-6.2-4.7-11-9-15.1c-6.7-6.1-91.7-89.7-92.3-90.5C982.2,61.5,927,9.3,920.2,0.3h18.6
	c13.2,15.4,43.3,42.4,48.4,48.6c0.5,0.5,108.3,106.2,108.5,106.3c18.2,19.2,8.7,0.6,10.9,105.4c0.3,11.9-0.3,71.1-0.3,72
	c0,86.9-2.6,73.3,7.6,88.5c3.7,5.6,7.8,11,11,16.9C1128.3,445.3,1129,453.6,1126.1,460.8 M1091.5,436.9c-3.7,0.6-6.4,3.4-9,5.9
	c-10.6,18,3.7,28.6,13.8,28.2C1118,472.3,1115.5,433.1,1091.5,436.9z"/>
<path class="st0" d="M1308.5,475.2c-30.1,13.3-59.4-27.5-27.6-48.7c25.9-14.6,51.4,9.5,43.8,32.3
	C1321,465.6,1316.1,472.4,1308.5,475.2 M1309.2,458.6c0.6-16.3-7-23.9-13-24.5c-14.6-2.5-27.8,21.6-12.1,31.8
	C1292.8,472.6,1306.9,468.4,1309.2,458.6z"/>
<path class="st0" d="M1406.5,475.2c-12.1,4.7-25.8,1.9-35.9-11.5c-13.8-19.1,6.5-36.9,13-49.8c1.2-3.3,2-2.5,1.9-61.3
	c-0.2-13.7,2-22.8-10.2-27.2c-7.8-2.8-14.9-0.5-37.7-1.9c-8.7-0.6-27.2-12.7-30.4-18.3c-2.9-4.5-2-10.1-2.3-15.2
	c0.2-5.4-0.6-11.3,2-16.3c3.9-7,23.3-16.1,29-17.4c12-2.2,35.8,0.8,44.4-2.9c26.7-11.6,18-28.1-10.6-27.3c-31,1.6-35.1-0.6-40.5-3.3
	c-24.2-11.9-23.7-19.6-23.6-29.2c0.8-13.7-1.9-18.3,11-25.6c29.2-15.7,19.6-8.1,57.1-10.7c9.5-0.6,28.1-11.2,23-20.2
	c-6.8-12.9-25.9-7.9-35.5-8.4c-10.4-0.5-21.7,1.4-31.3-3.9c-7-4.2-14.3-8.2-19.9-14.4c-5.3-5.6-3.4-25.8-2.2-30.4
	c1.9-5.9,7.6-9.3,12.9-12.1c6.7-3.4,13-7.9,20.8-8.2c31.7-1.4,39.6,2.5,53.5-10.2c8.8-8.2,0.2-17.2-9.3-19.2
	c-14-2.6-38.3,1.1-46.2-0.9c-6.4-1.1-24.8-11.5-29.8-19.7c-1.7-2.8-1.7-6.1-2.2-9.3h24.4c5.4,5.6,8.5,10.2,23.7,9.6
	c32.9-1.6,39,0.5,45.2,3.7c12.9,6.8,21.3,11.3,20.5,21.7c-0.6,16.9,1.9,21-14.1,30.9c-6.2,3.7-10.1,11-17.7,11.9
	c-15.1,1.4-30.1-0.3-45.2,1.2c-10.1,1.4-18.9,10.1-13.8,18.9c12.6,18.9,41,4.7,64.6,11.9c28.1,12.6,25,18.6,25.1,30.1
	c-0.5,18.5-4.7,17.7-15.2,25c-8.4,5.4-8.1,10.9-21,11.3c-32.3,1.1-44.9-2.5-53.5,7.8c-8.2,9.3,3.1,23,22.2,22.2
	c43.5-0.5,35.5-1.7,51.7,7c14.7,8.5,14.4,10.9,14.6,22.3c-0.2,5.3,1.1,11-1.6,16c-2.8,5.4-8.7,7.9-13.5,11.2
	c-11.2,7.3-5.6,11.2-26.4,11.6c-30.9,1.1-37.9-2.6-47.5,7.1c-6.5,6.4-2.5,17.8,13.5,21.6c10.6,1.6,21.4-0.5,32,0.5
	c7.6,0.5,14.1,5.1,20.5,9c14.9,8.8,12.4,26.7,12,66c-0.6,27.5-1.7,32.4,2.5,39c4.3,8.2,11.3,14.9,14.3,23.9
	C1428.6,455.7,1419.3,470.2,1406.5,475.2 M1403.9,437.8c-5.6-6.4-18-6.1-24.5,6.7c-0.5,2.2-1.6,4.2-1.7,6.5
	c-0.9,7.8,5,18.8,20.6,17.1C1415.8,465.9,1410.6,444.2,1403.9,437.8z"/>
<path class="st0" d="M1524.5,445.3c3.3,22.5-25.1,39.7-44.4,27.3c-13.8-8.5-20-24.8-9.2-40.7c17.4-26.8,14,0.6,15.2-141.7
	c-0.2-5.9,1.1-63.5,1.1-69.2c0-12.6,3.6-12.4,39.6-47.5c18.9-18,48.9,5,69.1-19.1c6.7-7.8-3.3-17.7-16.8-18.2
	c-17.1,0-62.1,1.6-71.5-0.3c-5.9-1.2-19.1-8.2-22.7-14.9c-2.8-5-2.6-20.5,0.3-25.3c3.4-5.4,17.8-14.7,21.6-16.1
	c6.1-2.5,44.2-1.1,74.2-2c17.2-0.5,16.9,2.2,31-7.3c11.6-8.1,7.8-16.3-0.6-20.5c-11.5-5.7-90.6,0.8-104.6-3.3
	c-4.3-1.4-27.9-11.9-28.4-24.4c-0.3-7.3,0.3-14.4,0.5-21.7h29c-3.6,3.9-13.7,12.4-3.1,21.4c11,10.9,22.3,5.3,103,6.1
	c8.1,0,30.6,11,33.2,20.3c5.6,30.6-7,30.4-17.4,39c-3.4,2.8-6.4,6.4-10.6,7.9c-6.2,2.2-45.3,2-51.7,1.6c-41.9,0.8-43-0.2-48.1,2.8
	c-8.1,4.7-9.3,10.9-1.6,15.7c4.7,2.2,5.6,1.6,73.3,1.4c12.3-0.3,29,12.1,31.2,14.3c6.1,6.4,5,26.4,2,32.1
	c-2.8,5.1-8.4,7.6-12.9,10.9c-9,5.9-8.2,11.6-25,11.3c-46.4-0.9-34.3-0.6-59.3,21.9c-14.3,14.9-11.3,7.1-12.1,45.9
	c0,0.9-1.2,95.9-1.2,106c-0.5,4.7-1.2,46.9-0.3,52c1.1,5.9,5.6,10.4,8.5,15.4C1518.9,432.5,1523.9,438.1,1524.5,445.3 M1507.4,460
	c3.7-6.5-0.2-23.1-10.2-25.6c-19.2-3.3-29.8,21.1-12.7,32C1489.9,469.3,1500.9,471,1507.4,460z"/>
<path class="st0" d="M2474.3,421.2c-18.6,1.7-32.7-13.8-30.6-29.3c1.6-16.5,20.5-31.7,42.2-22.2c9.2,4.3,15.7,14.3,15.5,24.5
	C2500.5,408.3,2488.1,420,2474.3,421.2 M2486.4,395.3c-0.5-2.6-1.2-5.1-1.9-7.8c-1.6-8.2-11.6-13.7-19.4-10.2
	c-12.4,5.1-16.3,18.9-9.8,27.6C2465.4,419.5,2490,411.6,2486.4,395.3z"/>
<path class="st0" d="M2559.8,391.4c-38.5,2.8-44.4-51.8,0-54.5v10.7c-29.6,2.3-26.1,37.9,0,36.3V391.4z"/>
<path class="st0" d="M516.3,383.2c-21.6,6.2-36.9-7-39.9-21.6c-4.3-16.3,12.9-37.4,34-31.7c20.8,3.9,29.6,23.4,20.5,40.2
	C528.1,376.3,522.4,380.5,516.3,383.2 M518.2,363.2c2.8-13.5-10.2-28.2-23.6-20.5c-5.6,3.9-9.6,10.7-8.2,17.5
	C487.8,376.7,514.3,381.3,518.2,363.2z"/>
<path class="st0" d="M1798.6,377.1c-15.5,2.5-30.6-10.9-32-24.5c-3.3-25.8,34.5-43.1,52.8-19.9c10.2,14.1,5.6,28.1-2.2,35.4
	C1812.4,373.6,1805.4,376.2,1798.6,377.1 M1810,355.4c-0.9-10.9-4.3-22.3-15.2-21.7c-14.7-0.8-25.6,22-11,32
	C1793.3,372.5,1809.7,367.8,1810,355.4z"/>
<path class="st0" d="M1717.5,368.9c-21.6,20.6-53.7,1.6-50.9-21c2.3-19.9,27-34.3,46.4-20.5c6.4,4,10.9,11,12.3,18.3
	C1726.5,354.3,1722.8,362.7,1717.5,368.9 M1709.2,359.4c1.2-5.1-1.7-9.8-2-14.9h-0.5c-1.4-8.2-11.2-11.6-18.3-8.8
	c-6.5,3.6-11.2,10.4-12.1,17.7C1675.6,372.3,1706.1,376.5,1709.2,359.4z"/>
<path class="st0" d="M920.8,248.9c-19.1,18.2-56.2,1.4-48.1-29c7.8-17.5,23.9-22.8,39.7-17.4c10.1,4,18,14.1,18.2,25.1
	C930.9,235.9,927,243.8,920.8,248.9 M914.9,236.5c1.7-4.5-0.8-16.6-6.1-21c-11.3-10.9-27.9,2.6-26.1,16.1
	C884.5,247.4,907.7,254.1,914.9,236.5z"/>
<path class="st0" d="M781.1,33.5c-6.5-6.4-25.9-25.8-31.7-33.1h78.8c1.2,3.7,2.5,7.4,2.8,11.3C832.5,36.9,798.9,51.4,781.1,33.5z"/>
<path class="st1" d="M1652.7,0.3h36.8C1683,15.9,1661.5,17.5,1652.7,0.3z"/>
</svg>
