<svg id="visual" viewBox="0 0 900 75" width="900" height="75" xmlns="http://www.w3.org/2000/svg"
    xmlns:xlink="http://www.w3.org/1999/xlink" version="1.1">
    <path
        d="M0 6L13.7 5.5C27.3 5 54.7 4 82 3.8C109.3 3.7 136.7 4.3 163.8 8.2C191 12 218 19 245.2 20.2C272.3 21.3 299.7 16.7 327 13C354.3 9.3 381.7 6.7 409 7.3C436.3 8 463.7 12 491 14.3C518.3 16.7 545.7 17.3 573 15.5C600.3 13.7 627.7 9.3 654.8 10C682 10.7 709 16.3 736.2 20.3C763.3 24.3 790.7 26.7 818 24C845.3 21.3 872.7 13.7 886.3 9.8L900 6L900 76L886.3 76C872.7 76 845.3 76 818 76C790.7 76 763.3 76 736.2 76C709 76 682 76 654.8 76C627.7 76 600.3 76 573 76C545.7 76 518.3 76 491 76C463.7 76 436.3 76 409 76C381.7 76 354.3 76 327 76C299.7 76 272.3 76 245.2 76C218 76 191 76 163.8 76C136.7 76 109.3 76 82 76C54.7 76 27.3 76 13.7 76L0 76Z"
        fill="#c06de2"></path>
    <path
        d="M0 16L13.7 18.5C27.3 21 54.7 26 82 27.2C109.3 28.3 136.7 25.7 163.8 24.3C191 23 218 23 245.2 25.7C272.3 28.3 299.7 33.7 327 33.8C354.3 34 381.7 29 409 29C436.3 29 463.7 34 491 34.8C518.3 35.7 545.7 32.3 573 32.2C600.3 32 627.7 35 654.8 33.2C682 31.3 709 24.7 736.2 24.8C763.3 25 790.7 32 818 32.5C845.3 33 872.7 27 886.3 24L900 21L900 76L886.3 76C872.7 76 845.3 76 818 76C790.7 76 763.3 76 736.2 76C709 76 682 76 654.8 76C627.7 76 600.3 76 573 76C545.7 76 518.3 76 491 76C463.7 76 436.3 76 409 76C381.7 76 354.3 76 327 76C299.7 76 272.3 76 245.2 76C218 76 191 76 163.8 76C136.7 76 109.3 76 82 76C54.7 76 27.3 76 13.7 76L0 76Z"
        fill="#7965be"></path>
    <path
        d="M0 46L13.7 45.5C27.3 45 54.7 44 82 42.5C109.3 41 136.7 39 163.8 36.8C191 34.7 218 32.3 245.2 34C272.3 35.7 299.7 41.3 327 41.8C354.3 42.3 381.7 37.7 409 37.3C436.3 37 463.7 41 491 41.5C518.3 42 545.7 39 573 37.7C600.3 36.3 627.7 36.7 654.8 37.7C682 38.7 709 40.3 736.2 42.7C763.3 45 790.7 48 818 49.2C845.3 50.3 872.7 49.7 886.3 49.3L900 49L900 76L886.3 76C872.7 76 845.3 76 818 76C790.7 76 763.3 76 736.2 76C709 76 682 76 654.8 76C627.7 76 600.3 76 573 76C545.7 76 518.3 76 491 76C463.7 76 436.3 76 409 76C381.7 76 354.3 76 327 76C299.7 76 272.3 76 245.2 76C218 76 191 76 163.8 76C136.7 76 109.3 76 82 76C54.7 76 27.3 76 13.7 76L0 76Z"
        fill="#43548f"></path>
    <path
        d="M0 51L13.7 51.5C27.3 52 54.7 53 82 53.8C109.3 54.7 136.7 55.3 163.8 56C191 56.7 218 57.3 245.2 56.5C272.3 55.7 299.7 53.3 327 50.8C354.3 48.3 381.7 45.7 409 44.8C436.3 44 463.7 45 491 45.3C518.3 45.7 545.7 45.3 573 44.8C600.3 44.3 627.7 43.7 654.8 45.3C682 47 709 51 736.2 54C763.3 57 790.7 59 818 57.8C845.3 56.7 872.7 52.3 886.3 50.2L900 48L900 76L886.3 76C872.7 76 845.3 76 818 76C790.7 76 763.3 76 736.2 76C709 76 682 76 654.8 76C627.7 76 600.3 76 573 76C545.7 76 518.3 76 491 76C463.7 76 436.3 76 409 76C381.7 76 354.3 76 327 76C299.7 76 272.3 76 245.2 76C218 76 191 76 163.8 76C136.7 76 109.3 76 82 76C54.7 76 27.3 76 13.7 76L0 76Z"
        fill="#283e5b"></path>
    <path
        d="M0 68L13.7 66.7C27.3 65.3 54.7 62.7 82 63.2C109.3 63.7 136.7 67.3 163.8 68.2C191 69 218 67 245.2 66.7C272.3 66.3 299.7 67.7 327 65.5C354.3 63.3 381.7 57.7 409 56.2C436.3 54.7 463.7 57.3 491 58.5C518.3 59.7 545.7 59.3 573 58.8C600.3 58.3 627.7 57.7 654.8 56.8C682 56 709 55 736.2 54.3C763.3 53.7 790.7 53.3 818 54.2C845.3 55 872.7 57 886.3 58L900 59L900 76L886.3 76C872.7 76 845.3 76 818 76C790.7 76 763.3 76 736.2 76C709 76 682 76 654.8 76C627.7 76 600.3 76 573 76C545.7 76 518.3 76 491 76C463.7 76 436.3 76 409 76C381.7 76 354.3 76 327 76C299.7 76 272.3 76 245.2 76C218 76 191 76 163.8 76C136.7 76 109.3 76 82 76C54.7 76 27.3 76 13.7 76L0 76Z"
        fill="#212529"></path>
</svg>