<?xml version="1.0" encoding="UTF-8" standalone="no"?>
<svg
   width="350"
   zoomAndPan="magnify"
   viewBox="0 0 262.5 165"
   height="220"
   preserveAspectRatio="xMidYMid"
   version="1.0"
   id="svg75"
   sodipodi:docname="logo-stroked.svg"
   inkscape:version="1.3.2 (091e20ef0f, 2023-11-25)"
   xmlns:inkscape="http://www.inkscape.org/namespaces/inkscape"
   xmlns:sodipodi="http://sodipodi.sourceforge.net/DTD/sodipodi-0.dtd"
   xmlns="http://www.w3.org/2000/svg"
   xmlns:svg="http://www.w3.org/2000/svg">
  <sodipodi:namedview
     id="namedview1"
     pagecolor="#ffffff"
     bordercolor="#000000"
     borderopacity="0.25"
     inkscape:showpageshadow="2"
     inkscape:pageopacity="0.0"
     inkscape:pagecheckerboard="0"
     inkscape:deskcolor="#d1d1d1"
     inkscape:zoom="2.8284271"
     inkscape:cx="202.05576"
     inkscape:cy="122.50625"
     inkscape:window-width="1920"
     inkscape:window-height="939"
     inkscape:window-x="0"
     inkscape:window-y="338"
     inkscape:window-maximized="1"
     inkscape:current-layer="svg75" />
  <defs
     id="defs1">
    <g
       id="g1" />
    <clipPath
       id="9b35b0e96f">
      <path
         d="M 68.332031,37.5 H 317.33203 V 195 H 68.332031 Z m 0,0"
         clip-rule="nonzero"
         id="path1" />
    </clipPath>
  </defs>
  <path
     id="path16"
     style="fill:#e6f2f2;fill-opacity:1;stroke:#e6f2f2;stroke-width:7.51043;stroke-linecap:round;stroke-linejoin:round;stroke-dasharray:none;stroke-opacity:1;paint-order:stroke markers fill"
     d="m 201.48812,3.7583723 c -1.39557,0.030251 -2.69421,0.2824428 -3.886,0.7571543 -2.66393,1.05882 -4.59872,3.3605347 -5.04739,5.8532654 -1.27791,0.378988 -2.39579,1.019673 -3.22903,1.910496 -1.26189,1.328411 -1.77541,2.985443 -2.26415,4.532648 -0.44064,1.387021 -0.89759,2.75479 -1.3623,4.114454 -1.23784,3.707838 -2.51445,7.504999 -3.27156,11.415995 -1.35802,0.250057 -2.67994,0.645243 -3.95784,1.035951 -1.4261,0.421971 -2.78917,0.831762 -4.11915,1.003675 -13.38787,1.797263 -24.68384,9.998743 -32.0147,16.023482 -7.72748,6.345127 -17.02554,13.470947 -28.38239,21.757899 -12.2742,8.962874 -27.068526,16.098056 -45.231469,21.80632 -16.648708,5.227699 -34.16698,8.637918 -49.621901,11.646378 -2.980421,0.58606 -6.048495,1.18436 -8.896719,2.63388 -2.9403643,1.48863 -5.512354,4.84112 -6.4096852,8.33017 -0.1722561,0.73064 0.1075979,1.47189 0.7405379,1.90169 0.6048973,0.42187 1.4427135,0.43766 2.0676403,0.0234 3.2087595,-2.09421 7.386288,-3.3167 12.389711,-3.63317 3.853718,-0.24225 7.828399,0.0473 11.674104,0.34043 l 2.123363,0.1438 c 7.074502,0.4962 14.277463,0.69529 21.227774,0.8672 l 0.953168,0.0234 c 10.283247,0.2696 20.82699,0.54356 30.994075,-0.98019 -15.446915,8.96288 -30.862446,13.87005 -45.936809,14.61629 -1.874783,0.0861 -3.793472,0.11412 -5.644219,0.14527 -3.304903,0.0468 -6.733899,0.10429 -10.110907,0.4989 -3.601345,0.4376 -6.706773,1.22409 -9.478885,2.40792 -0.16825,0.0704 -0.356259,0.14336 -0.564568,0.23332 -1.850745,0.72671 -3.436134,1.45008 -4.201269,2.65737 -0.544809,0.87129 -0.6139051,1.88302 -0.2052982,2.80118 0.4526712,0.9924 1.4260282,1.7235 2.6278092,1.95011 0.300447,0.0466 0.601003,0.0822 0.897444,0.0822 1.037538,0 2.083133,-0.28501 3.03254,-0.51944 0.480712,-0.13676 0.930406,-0.25101 1.310971,-0.30961 3.072557,-0.46104 5.712292,-0.49152 8.556512,-0.12033 2.515734,0.33209 5.1546,0.22582 7.710392,0.12033 1.169734,-0.0468 2.343798,-0.10565 3.513522,-0.10565 l 21.99764,-0.0381 c 2.904299,0 5.923635,-0.30946 8.739813,-0.85254 0.869286,-0.16798 1.858732,-0.12806 2.912294,-0.0616 -1.502223,0.76971 -2.895732,1.61641 -4.04143,2.51503 -1.193771,0.94944 -2.532295,1.75819 -3.934383,2.60602 -0.997479,0.5939 -1.998296,1.20765 -2.979748,1.87968 -0.805191,0.55089 -1.021887,1.5938 -0.497114,2.40646 0.512762,0.80877 1.574029,1.09099 2.431311,0.62216 2.748071,-1.45733 6.158174,-1.55471 9.18267,-1.56273 3.525231,0 6.745343,-0.0627 10.298607,-1.09025 10.816043,-3.10222 22.012546,-4.8172 33.277286,-5.07117 3.50518,-0.0782 7.09056,-0.0238 10.57575,0.0425 8.57673,0.12894 17.44154,0.27257 26.03028,-1.60676 4.2423,-0.94549 8.51787,-2.19856 12.8443,-3.81217 -4.12614,1.78162 -8.3686,3.3601 -12.51876,4.89948 -3.66945,1.35185 -7.47102,2.76237 -11.15646,4.29787 -3.16871,1.3128 -6.50637,2.84356 -9.40263,5.01982 -3.21279,2.41459 -5.56379,5.62601 -6.64138,9.02128 -0.22434,0.73454 0.0401,1.51304 0.67308,1.96625 0.32046,0.23442 0.70459,0.33896 1.08515,0.33896 0.34852,0 0.70562,-0.0889 1.02209,-0.28027 4.60684,-3.02016 10.3354,-5.11085 17.50602,-6.45487 4.7831,-0.87519 9.7305,-1.34476 14.5336,-1.79017 1.57834,-0.16019 3.17281,-0.30789 4.75118,-0.46809 13.59612,-1.41047 24.4199,-3.64559 34.0662,-7.04476 6.91428,-2.44584 12.93157,-7.03598 17.39018,-13.26779 3.61737,-5.05969 4.84697,-11.64359 3.26863,-17.6097 -1.22583,-4.62211 -4.37452,-9.05317 -8.42454,-12.06163 4.05002,-1.09397 8.28403,-1.79753 12.39412,-2.469557 1.19375,-0.203162 2.39884,-0.397494 3.57658,-0.616287 6.74601,-1.179926 13.85358,-2.727583 20.07077,-6.177553 10.1951,-5.657487 11.93763,-18.976639 12.20201,-24.450488 0.38454,-7.794232 -2.03982,-15.299663 -6.65018,-20.554666 -3.06053,-3.473408 -7.18644,-6.290453 -13.00706,-8.849607 -7.37893,-3.238978 -15.0387,-5.017718 -22.45371,-5.256056 0.12421,-6.063806 0.19211,-12.287014 -0.85344,-18.43287 -0.38058,-2.227047 -0.98165,-4.794476 -2.61608,-6.8495987 -1.5583,-2.0004396 -3.966,-3.4304642 -7.17075,-4.2743968 -1.57834,-0.4161113 -3.06966,-0.6084201 -4.46522,-0.5781384 z m -4.97261,6.2391749 c 0.51577,0.042476 1.03091,0.1155078 1.54267,0.2186438 0.51175,0.103127 1.02068,0.236415 1.5236,0.39765 0.50292,0.161235 0.99916,0.35106 1.48841,0.567861 0.48924,0.21681 0.97072,0.460897 1.44148,0.730749 0.47075,0.269842 0.93099,0.565927 1.37843,0.886275 0.44744,0.320348 0.88288,0.664706 1.30216,1.033015 0.41931,0.368311 0.82348,0.76014 1.2098,1.173888 0.38632,0.413737 0.75423,0.849301 1.10274,1.305942 0.57486,0.751134 1.10155,1.557422 1.57933,2.418193 0.47778,0.860773 0.90705,1.775816 1.28604,2.743952 0.37899,0.968124 0.70841,1.98914 0.98689,3.062364 0.27849,1.073215 0.50563,2.198869 0.68189,3.37491 0.14822,0.992397 0.25963,1.991554 0.34167,2.991924 0.0821,1.00038 0.13472,2.001992 0.16277,3.002203 -0.028,-1.000211 -0.0806,-2.001823 -0.16277,-3.002203 -0.082,-1.00037 -0.19345,-1.999527 -0.34167,-2.991924 -0.17626,-1.176041 -0.4034,-2.301695 -0.68189,-3.37491 -0.27848,-1.073224 -0.6079,-2.09424 -0.98689,-3.062364 -0.37899,-0.968136 -0.80826,-1.883179 -1.28604,-2.743952 -0.47778,-0.860771 -1.00447,-1.667059 -1.57933,-2.418193 -0.34851,-0.456641 -0.71642,-0.892205 -1.10274,-1.305942 -0.38632,-0.413748 -0.79049,-0.805577 -1.2098,-1.173888 -0.41928,-0.368309 -0.85472,-0.712667 -1.30216,-1.033015 -0.44744,-0.320348 -0.90768,-0.616433 -1.37843,-0.886275 -0.47076,-0.269852 -0.95224,-0.513939 -1.44148,-0.730749 -0.48925,-0.216801 -0.98549,-0.406626 -1.48841,-0.567861 -0.50292,-0.161235 -1.01185,-0.294523 -1.5236,-0.39765 -0.51176,-0.103136 -1.0269,-0.176151 -1.54267,-0.2186438 z m -2.2348,3.6493088 c 0.38455,0.113303 0.74903,0.272696 1.08954,0.44461 0.59888,0.360426 1.16607,0.738362 1.7025,1.129861 0.53642,0.39149 1.04222,0.796011 1.5192,1.21056 0.95396,0.829107 1.79231,1.697481 2.52663,2.570805 0.73432,0.873322 1.36456,1.752495 1.90339,2.606014 0.53886,0.853529 0.98596,1.680783 1.35351,2.450479 0.36553,0.776537 0.64889,1.492332 0.86518,2.130593 0.21629,0.63827 0.36553,1.199269 0.46046,1.663984 0.0949,0.464704 0.13637,0.832913 0.13784,1.088771 0.001,0.255867 -0.037,0.399143 -0.10118,0.410863 -0.085,0.02634 -0.1934,-0.07423 -0.33581,-0.281732 0.14241,0.207544 0.25067,0.308107 0.33581,0.281732 0.064,-0.01172 0.10264,-0.154996 0.10118,-0.410863 -10e-4,-0.255858 -0.0429,-0.624067 -0.13784,-1.088771 -0.095,-0.464715 -0.24417,-1.025714 -0.46046,-1.663984 -0.21629,-0.638261 -0.49964,-1.354056 -0.86518,-2.130593 -0.36755,-0.769696 -0.81465,-1.59695 -1.35351,-2.450479 -0.53883,-0.853519 -1.16907,-1.732692 -1.90339,-2.606014 -0.73432,-0.873324 -1.57267,-1.741698 -2.52663,-2.570805 -0.47698,-0.414549 -0.98278,-0.81907 -1.5192,-1.21056 -0.53643,-0.391499 -1.10362,-0.769435 -1.7025,-1.129861 -0.34051,-0.171914 -0.70499,-0.331307 -1.08954,-0.44461 z m 21.35094,23.79752 c 1.02764,0.01734 2.06051,0.06742 3.09853,0.148204 -2.07603,-0.161476 -4.13384,-0.196977 -6.16186,-0.104188 1.014,-0.04638 2.0357,-0.0614 3.06333,-0.04398 z m -6.8892,5.033014 c -0.06,1.720101 -0.12086,3.453924 -0.14078,5.192957 -0.0199,1.739043 7.7e-4,3.482654 0.10559,5.220845 0.0524,0.869086 0.12638,1.73791 0.22583,2.603079 0.0994,0.86517 0.22422,1.726703 0.38127,2.58547 0.15703,0.858779 0.34668,1.715032 0.5719,2.564935 0.22521,0.849903 0.48644,1.694086 0.79039,2.532649 -0.30395,-0.838563 -0.56518,-1.682746 -0.79039,-2.532649 -0.22522,-0.849903 -0.41487,-1.706156 -0.5719,-2.564935 -0.15705,-0.858767 -0.28183,-1.7203 -0.38127,-2.58547 -0.0995,-0.865169 -0.17342,-1.733993 -0.22583,-2.603079 -0.10482,-1.738191 -0.12549,-3.481802 -0.10559,-5.220845 0.0199,-1.739033 0.0806,-3.472856 0.14078,-5.192957 z m 35.63673,3.624355 c 1.93249,1.305732 3.53956,2.702711 4.88755,4.236252 -1.34799,-1.533541 -2.95506,-2.93052 -4.88755,-4.236252 z m -50.69237,4.858406 c 0.0467,-0.007 0.10291,-0.003 0.16717,0.01032 0.1285,0.02724 0.28975,0.09596 0.47511,0.206894 0.18536,0.110929 0.39418,0.264 0.61882,0.462209 0.22465,0.198219 0.46485,0.441625 0.71121,0.73075 0.24537,0.28131 0.49217,0.613138 0.72734,0.98899 0.23519,0.375852 0.45824,0.79578 0.65695,1.253122 0.19874,0.457342 0.37282,0.951837 0.50886,1.477626 0.13603,0.525779 0.23448,1.082792 0.28155,1.663975 0.048,0.581183 0.0417,1.14684 -0.007,1.687455 -0.049,0.540614 -0.1416,1.056766 -0.26395,1.539251 -0.12235,0.482484 -0.27403,0.931432 -0.44579,1.338227 -0.17176,0.406786 -0.36287,0.770828 -0.56017,1.084374 -0.24837,0.414148 -0.48102,0.707169 -0.70534,0.972853 0.22432,-0.265684 0.45697,-0.558705 0.70534,-0.972853 0.1973,-0.313546 0.38841,-0.677588 0.56017,-1.084374 0.17176,-0.406795 0.32344,-0.855743 0.44579,-1.338227 0.12235,-0.482485 0.21488,-0.998637 0.26395,-1.539251 0.049,-0.540615 0.0554,-1.106272 0.007,-1.687455 -0.047,-0.581183 -0.14552,-1.138196 -0.28155,-1.663975 -0.13604,-0.525789 -0.31012,-1.020284 -0.50886,-1.477626 -0.19871,-0.457342 -0.42176,-0.87727 -0.65695,-1.253122 -0.23517,-0.375852 -0.48197,-0.70768 -0.72734,-0.98899 -0.24636,-0.289125 -0.48656,-0.532531 -0.71121,-0.73075 -0.22464,-0.198209 -0.43346,-0.35128 -0.61882,-0.462209 -0.18536,-0.110941 -0.34661,-0.179617 -0.47511,-0.206894 -0.12851,-0.02724 -0.22454,-0.01312 -0.27862,0.03966 -0.0931,0.08695 -0.0849,0.261598 -0.009,0.515041 0.0761,0.253443 0.22027,0.58514 0.39741,0.987528 -0.17714,-0.402388 -0.32127,-0.734085 -0.39741,-0.987528 -0.0761,-0.253443 -0.0842,-0.428112 0.009,-0.515041 0.027,-0.02634 0.0646,-0.04328 0.11145,-0.04988 z m -6.55633,2.73221 c 0.5573,0.598543 1.15454,1.153121 1.79049,1.658105 -0.63624,-0.505224 -1.23297,-1.05924 -1.79049,-1.658105 z m 6.71323,0.820253 c 0.45837,0.365164 0.90438,0.755842 1.31097,1.185617 -0.40659,-0.429775 -0.8526,-0.820453 -1.31097,-1.185617 z m -1.78022,10.513577 c 0.0619,0.373325 0.20772,0.762142 0.47511,1.154807 -0.26739,-0.392665 -0.41316,-0.781482 -0.47511,-1.154807 z m 4.30391,3.647837 c 1.34199,0.746266 2.57246,1.312956 3.72616,1.750552 1.06558,0.404381 2.12575,0.710781 3.16891,0.915628 1.04316,0.204847 2.06933,0.308143 3.0648,0.308143 -0.99547,0 -2.02164,-0.103296 -3.0648,-0.308143 -1.04316,-0.204847 -2.10333,-0.511247 -3.16891,-0.915628 -1.1537,-0.437596 -2.38417,-1.004286 -3.72616,-1.750552 z m -87.02566,10.959653 c -2.72572,1.726641 -5.53154,3.398747 -8.48465,4.980194 2.95279,-1.581274 5.7592,-3.253759 8.48465,-4.980194 z M 89.335489,90.170736 c -4.029653,1.748168 -8.253272,3.394339 -12.682993,4.946445 4.429721,-1.552106 8.65334,-3.198277 12.682993,-4.946445 z m 8.437732,9.62583 c -0.530126,0.384514 -0.926584,0.825194 -1.20099,1.188554 0.274406,-0.36336 0.670864,-0.80404 1.20099,-1.188554 z m 92.490979,5.380774 c 1.09215,0.13862 2.27434,0.20537 3.52818,0.16435 -1.25384,0.0409 -2.43603,-0.0257 -3.52818,-0.16435 z m 4.79516,2.6295 c 0.17326,0.0892 0.43868,0.16293 0.7992,0.19222 -0.36158,-0.0293 -0.62597,-0.10267 -0.7992,-0.19222 z m -176.299328,3.49377 c -1.622408,0.0977 -3.177169,0.28593 -4.655857,0.56346 1.478688,-0.27753 3.033449,-0.46579 4.655857,-0.56346 z m 75.083206,3.36757 c -4.493665,2.89614 -8.988921,5.46409 -13.480722,7.70067 4.491801,-2.23658 8.987057,-4.80453 13.480722,-7.70067 z m 58.330932,6.87308 c -1.08963,0.84392 -2.51544,1.7662 -4.35819,2.4226 1.84275,-0.6564 3.26856,-1.57868 4.35819,-2.4226 z m -22.24988,0.11885 c -0.95196,0.0589 -1.89621,0.1539 -2.77151,0.36097 0.8753,-0.20708 1.81955,-0.30206 2.77151,-0.36097 z m 6.00203,2.35071 c 1.67047,0.16408 3.55303,0.51086 5.68822,0.66323 1.06155,0.0821 2.15288,0.077 3.20849,-0.0352 -1.05561,0.11212 -2.14694,0.11726 -3.20849,0.0352 -2.13519,-0.15237 -4.01775,-0.49915 -5.68822,-0.66323 z m 47.41787,4.719 c -1.1599,1.1748 -2.53299,2.36556 -4.06928,3.47322 1.53629,-1.10766 2.90938,-2.29842 4.06928,-3.47322 z m -148.905285,4.87601 c -3.20876,0.0546 -6.529288,0.10573 -9.73404,0.47689 3.204752,-0.37116 6.52528,-0.42221 9.73404,-0.47689 z m 142.539605,0.13206 c -2.26494,1.41128 -4.40006,2.45743 -6.08854,3.17828 1.68848,-0.72085 3.8236,-1.767 6.08854,-3.17828 z m -82.646956,0.3683 c -2.677166,0.72227 -5.490352,1.58448 -8.286692,2.67499 2.79634,-1.09051 5.609526,-1.95272 8.286692,-2.67499 z m 25.823496,3.35584 c 1.79526,0.01 3.58261,0.0371 5.33922,0.0705 -3.51322,-0.0666 -7.14695,-0.11284 -10.72827,-0.0308 -2.86442,0.0639 -5.7248,0.22186 -8.57704,0.46809 2.85221,-0.24623 5.71265,-0.40428 8.57704,-0.46809 1.79065,-0.041 3.59381,-0.0492 5.38905,-0.0395 z m -14.14353,0.52238 c -2.85218,0.25004 -5.69647,0.58886 -8.525715,1.0198 -2.858431,0.4354 -5.701508,0.96333 -8.525717,1.58182 -2.824209,0.61847 -5.629278,1.32768 -8.408404,2.12765 2.779126,-0.79997 5.584195,-1.50918 8.408404,-2.12765 2.824209,-0.61849 5.667286,-1.14642 8.525717,-1.58182 2.829305,-0.43095 5.673475,-0.76976 8.525715,-1.0198 z m 45.63033,11.91636 c -2.4881,0.28896 -4.98225,0.63508 -7.4479,1.09612 2.46565,-0.46104 4.9598,-0.80716 7.4479,-1.09612 z" />
  <g
     id="g11"
     style="display:inline;stroke:none"
     transform="matrix(1.0010703,0,0,1.0017124,-0.14054651,-0.13891523)">
    <path
       fill="#01868b"
       d="m 193.11294,107.95344 c 0.0839,0.27301 -1.36857,0.9517 -3.87361,1.53286 -2.49704,0.58506 -6.06254,0.99461 -9.99217,0.76838 -3.93763,-0.24183 -7.42709,-1.05701 -9.8321,-1.9229 -2.421,-0.85811 -3.76556,-1.69668 -3.65752,-1.97362 0.22409,-0.62017 6.12656,1.26373 13.62968,1.65767 7.49113,0.47586 13.56566,-0.71768 13.72572,-0.0624"
       fill-opacity="1"
       fill-rule="nonzero"
       id="path3"
       style="fill:#01868b;fill-opacity:1;stroke:none;stroke-width:7.78313;stroke-linecap:round;stroke-linejoin:round;stroke-dasharray:none;stroke-opacity:1;paint-order:stroke markers fill" />
    <path
       fill="#01868b"
       d="m 187.11045,80.716758 c 0.19607,-0.390041 0.14806,-0.971203 -0.14408,-1.528961 -0.44418,-0.858097 -1.30052,-1.493869 -2.26094,-1.681092 -0.18407,-0.03907 -0.37615,-0.0586 -0.57224,-0.0586 -0.97239,0 -2.10085,0.390052 -2.73713,0.986811 -0.43217,0.397847 -0.60424,0.834696 -0.53222,1.333947 0.10804,0.721578 0.7243,1.42365 1.54464,1.76298 1.02844,0.436857 2.18891,0.32375 2.95723,0.144333 0.51621,-0.105313 1.4446,-0.37835 1.74474,-0.959513 z m 2.44502,-2.305148 c 0.0839,-0.557771 0.04,-1.131128 -0.04,-1.575779 -0.36013,-2.020409 -1.57664,-3.830215 -3.26932,-4.840421 -1.72474,-1.033606 -3.96168,-1.189632 -5.7064,-0.413443 -1.74872,0.799588 -2.50104,2.254447 -3.06526,4.177347 -0.11607,0.374434 -0.24811,0.729383 -0.40018,1.076517 -0.2161,0.507055 -0.38016,0.9205 -0.38815,1.372958 -0.0161,0.82689 0.25608,1.665481 0.7443,2.328552 0.34014,0.444642 0.78832,0.799579 1.28054,1.115526 -0.26012,-0.475847 -0.44819,-0.971213 -0.53224,-1.493867 -0.20808,-1.349545 0.27212,-2.652295 1.34458,-3.646901 1.42457,-1.310543 3.78155,-1.973604 5.70236,-1.599169 1.80076,0.339339 3.3494,1.493857 4.16173,3.085234 0.0678,0.128714 0.10806,0.276935 0.16809,0.413446 z m 2.63709,-2.028225 c 0.27211,1.54457 0.13204,2.901909 -0.42419,4.048642 -0.84434,1.696679 -2.46902,2.675699 -3.62952,3.264664 -1.7247,0.873685 -3.42541,1.357348 -5.0701,1.505559 -0.16406,0.03908 -0.31212,0.07794 -0.4722,0.105303 -2.94122,0.514861 -5.63034,-0.105303 -7.31104,-0.9244 -1.70071,-0.822991 -2.46503,-1.72008 -2.29696,-1.961911 0.17207,-0.276927 1.20852,0.105311 2.85319,0.475858 0.04,0 0.088,0.01555 0.13204,0.03119 -0.26811,-0.265224 -0.5162,-0.530448 -0.7323,-0.83858 -0.84434,-1.123323 -1.29252,-2.515775 -1.27652,-3.91993 0.008,-0.940007 0.32414,-1.68109 0.59626,-2.336357 0.10805,-0.257431 0.21608,-0.526561 0.30012,-0.815188 0.64026,-2.160847 1.6847,-4.536195 4.53788,-5.827244 2.58509,-1.166219 5.75439,-0.955595 8.26345,0.542171 2.34899,1.404144 4.04169,3.892631 4.52989,6.650217"
       fill-opacity="1"
       fill-rule="nonzero"
       id="path4"
       style="fill:#01868b;fill-opacity:1;stroke:none;stroke-width:7.78313;stroke-linecap:round;stroke-linejoin:round;stroke-dasharray:none;stroke-opacity:1;paint-order:stroke markers fill" />
    <path
       fill="#01868b"
       d="m 172.34829,100.94437 c 0.008,0.27693 -1.36056,0.63187 -3.64953,0.59677 -2.26094,-0.0468 -5.42225,-0.57336 -8.6396,-1.895608 -3.22534,-1.33395 -5.80241,-3.178859 -7.40308,-4.746822 -1.60868,-1.575768 -2.31298,-2.781 -2.09687,-2.979924 0.48819,-0.444651 4.39383,3.229549 10.39632,5.671209 5.97052,2.523575 11.39276,2.691295 11.39276,3.354375"
       fill-opacity="1"
       fill-rule="nonzero"
       id="path5"
       style="fill:#01868b;fill-opacity:1;stroke:none;stroke-width:7.78313;stroke-linecap:round;stroke-linejoin:round;stroke-dasharray:none;stroke-opacity:1;paint-order:stroke markers fill" />
    <path
       fill="#01868b"
       d="m 134.26442,73.528281 c 0.15605,0.639657 -6.65878,2.546969 -14.13789,6.736031 -7.50314,4.126647 -12.65328,8.873467 -13.14148,8.413216 -0.2161,-0.202811 0.82034,-1.673287 2.8852,-3.685903 2.06486,-2.012615 5.2382,-4.50109 9.12781,-6.661925 3.88962,-2.15693 7.7032,-3.553291 10.53239,-4.267064 2.84117,-0.702082 4.64993,-0.822992 4.73397,-0.534355"
       fill-opacity="1"
       fill-rule="nonzero"
       id="path6"
       style="fill:#01868b;fill-opacity:1;stroke:none;stroke-width:7.78313;stroke-linecap:round;stroke-linejoin:round;stroke-dasharray:none;stroke-opacity:1;paint-order:stroke markers fill" />
    <path
       fill="#01868b"
       d="m 211.20448,65.665017 c 0.0839,-0.581159 -0.20809,-1.341744 -0.50421,-2.133532 l -0.10804,-0.323735 c -2.42902,-6.697029 -2.17292,-13.795804 -1.93282,-20.664454 0.18409,-4.664908 0.35616,-9.474133 -0.33213,-14.014228 -0.62825,-4.091548 -1.92479,-7.445913 -3.83761,-9.957787 -2.23293,-2.917518 -5.46627,-4.76242 -8.63158,-4.930139 -0.59626,-0.02341 -1.13648,0.0234 -1.64469,0.120914 0.38415,0.113111 0.74831,0.273032 1.08846,0.444649 4.78599,2.878514 7.52713,6.87645 8.99574,9.949985 1.4606,3.100838 1.61668,5.238271 1.36058,5.285076 -0.34016,0.105312 -1.06044,-1.809795 -2.78517,-4.524493 -0.85636,-1.369049 -1.98083,-2.901915 -3.42543,-4.454286 -0.72831,-0.768383 -1.53264,-1.536767 -2.40499,-2.28175 -0.88838,-0.709876 -1.84878,-1.493861 -2.80918,-1.985314 -0.97241,-0.518757 -1.95682,-0.686476 -2.78917,-0.495356 -0.04,0.01562 -0.0639,0.0351 -0.10004,0.0429 -0.32015,0.620167 -0.56825,1.365146 -0.81236,2.133534 -0.47219,1.501663 -0.93638,2.894115 -1.40058,4.267064 -1.64068,4.871631 -3.19333,9.470232 -3.62952,14.306761 -0.60825,6.825744 1.50864,12.863603 5.67037,16.178964 0.38817,0.308134 0.80434,0.596766 1.22052,0.897099 0.91237,0.655271 1.88078,1.357346 2.69311,2.215441 -0.69629,-2.585982 -1.94881,-4.333373 -1.57665,-4.68051 0.21608,-0.210625 1.09645,0.202822 2.08087,1.357348 0.9804,1.123323 1.98481,3.054033 2.17289,5.374785 0.19208,2.320753 -0.48819,4.38798 -1.27652,5.640016 -0.24811,0.413444 -0.48021,0.705977 -0.70429,0.971206 0.37215,0.234025 1.06842,0.557768 1.43659,0.744988 0.34016,0.159918 0.63627,0.304224 0.86835,0.417343 1.19652,0.663076 2.25695,1.17402 3.26938,1.536773 1.76472,0.678668 4.42585,1.357338 7.03893,0.744979 1.26051,-0.300338 2.67711,-1.099918 2.80917,-2.184245 z m 1.63268,-31.690954 c 0.11604,-5.905246 0.19208,-11.974309 -0.80433,-17.821047 -0.32013,-1.872203 -0.77633,-3.814615 -1.9048,-5.242171 -1.05243,-1.3495462 -2.81318,-2.3597562 -5.19817,-2.9838251 -2.37298,-0.6240687 -4.39783,-0.6240687 -6.01451,0.031197 -0.97639,0.3822401 -1.95681,1.1740271 -2.46902,2.1608351 4.12172,0.339337 8.19141,2.65619 10.97656,6.303087 2.29698,2.999427 3.82562,6.884251 4.5299,11.580363 0.29613,1.981416 0.44819,3.986236 0.50421,5.983254 0.13205,0 0.2561,-0.01169 0.38016,-0.01169 z m 42.06554,34.432954 c 0.34015,-6.888151 -1.75675,-13.456469 -5.7624,-18.016064 -2.69313,-3.061834 -6.41869,-5.577609 -11.71689,-7.913964 -8.24743,-3.611793 -16.83902,-5.285076 -24.9424,-4.914536 -0.0239,1.723988 -0.08,3.420673 -0.14806,5.101756 -0.2401,6.837446 -0.4882,13.304352 1.72471,19.357811 l 0.10007,0.288632 c 0.42415,1.115524 0.88036,2.36756 0.68827,3.799009 -0.38017,2.976026 -3.24136,4.664919 -5.59834,5.214875 -0.9524,0.226223 -1.95682,0.33934 -3.00125,0.33934 -1.98882,0 -4.09771,-0.413446 -6.2266,-1.220829 -1.15246,-0.436849 -2.38099,-1.002413 -3.72154,-1.747403 -0.19207,-0.105312 -0.42418,-0.210624 -0.7003,-0.347135 -1.38457,-0.663059 -2.50904,-1.24423 -3.1253,-2.141329 -1.06843,-1.567974 -0.19608,-3.069637 0.22409,-3.806818 0.10005,-0.167716 0.21609,-0.354939 0.28413,-0.542159 0.34815,-0.912699 0.42818,-1.653779 0.28011,-2.262247 -0.32412,-1.220832 -1.65668,-2.188137 -3.04928,-3.190548 -0.46418,-0.331536 -0.92839,-0.663072 -1.35255,-1.01021 -5.08211,-4.033039 -7.70321,-11.202022 -7.01492,-19.162791 -0.75632,0.175519 -1.53665,0.393945 -2.34097,0.643571 -1.51664,0.452449 -3.06528,0.9127 -4.70598,1.142825 -12.43317,1.65378 -23.13764,9.44683 -30.10855,15.176555 -7.77925,6.377196 -17.11513,13.53058 -28.52789,21.861884 -12.57724,9.181599 -27.703535,16.463688 -46.243271,22.290941 -16.839013,5.285067 -34.434337,8.721337 -49.992832,11.744177 -2.709129,0.52655 -5.514299,1.0648 -7.911298,2.28564 -0.688287,0.34715 -1.364569,0.88151 -1.980825,1.52897 2.637099,-0.90491 5.606336,-1.46268 8.847689,-1.65769 4.105709,-0.24962 8.203418,0.0392 12.16507,0.33154 l 2.120842,0.15993 c 6.9749,0.48755 14.121888,0.67086 21.028761,0.84249 l 0.956403,0.031 c 13.317554,0.33935 27.071285,0.70598 39.576485,-2.95652 1.096462,-0.56555 2.453032,-1.34955 3.721555,-2.53135 0.600248,-0.55778 1.104472,-1.13896 1.536636,-1.6967 0.09203,-0.19503 0.188095,-0.37054 0.272115,-0.56556 0.19209,-0.49925 0.34815,-1.01802 0.48821,-1.52898 0.13606,-0.52266 0.20008,-0.95949 0.19209,-1.24423 -0.04,-0.27302 -0.04,-0.27302 -0.14807,-0.37833 -0.11605,-0.0977 -0.38416,-0.17162 -0.60825,-0.14433 -0.520212,0.039 -1.176495,0.37835 -1.796756,1.08042 -0.672273,0.64747 -1.204498,1.22084 -1.908784,1.8215 -1.36057,1.10382 -2.677127,1.68108 -3.613507,1.9307 -0.920392,0.24964 -1.484617,0.20284 -1.552663,0.0233 -0.16405,-0.41345 1.724733,-1.22084 3.681541,-3.41677 0.440189,-0.51877 1.012416,-1.29494 1.616676,-2.05554 0.548227,-0.72548 1.584664,-1.762978 3.201331,-2.036017 0.828342,-0.136509 1.708722,-0.02333 2.537072,0.47585 0.87236,0.495361 1.44459,1.591387 1.50061,2.433877 0.076,0.86589 -0.072,1.56796 -0.2241,2.19203 -0.14806,0.62016 -0.34813,1.25984 -0.58023,1.88001 -0.97641,2.49236 -2.59308,4.5674 -4.41784,6.02226 -1.616675,1.31835 -3.293375,2.11012 -4.741981,2.69128 -17.955479,11.56477 -35.946977,17.88738 -53.566324,18.76105 -1.940806,0.0936 -3.889623,0.12092 -5.774405,0.14433 -3.205337,0.0546 -6.522721,0.10531 -9.724054,0.47584 -3.225344,0.40565 -5.986497,1.09213 -8.435517,2.13353 -0.180075,0.0819 -0.396164,0.16383 -0.636264,0.26523 -0.224094,0.0819 -0.548229,0.21063 -0.91238,0.37444 0.256106,-0.0663 0.496205,-0.13651 0.720301,-0.18721 0.572237,-0.14433 1.152478,-0.30813 1.708709,-0.38615 3.385412,-0.50316 6.434684,-0.54215 9.587998,-0.12872 2.196915,0.28863 4.673948,0.19893 7.05494,0.0859 1.220513,-0.0469 2.437012,-0.10531 3.605509,-0.10531 l 22.025176,-0.0391 c 2.677115,0 5.438265,-0.27301 8.019335,-0.77618 1.548652,-0.28863 3.081292,-0.18722 4.57391,-0.0818 0.680285,0.0506 1.360558,0.1053 2.016841,0.1053 h 2.769152 c 0.904379,-0.24963 1.956819,-0.49144 3.117306,-0.67867 0.872366,-0.1443 1.708711,-0.23401 2.473022,-0.28863 5.106134,-2.22325 10.332307,-3.63911 14.866204,-4.73121 3.009262,-0.72548 6.078522,-1.37297 9.039762,-1.98532 5.5223,-1.16622 11.22469,-2.35196 16.62293,-4.11494 1.37658,-0.45245 2.74514,-1.17014 4.12172,-1.50166 1.74873,-0.41346 3.77356,-0.38225 5.58234,-0.50317 1.95679,-0.12092 4.16172,-0.52655 6.09453,-0.039 4.10971,1.03362 8.44751,0.20283 12.17306,-1.66548 2.31298,-1.15454 3.8296,-1.92291 4.07771,-1.57579 0.23209,0.30035 -0.78834,1.6148 -2.93322,3.30368 -1.08845,0.84248 -2.51305,1.76298 -4.35383,2.41826 -1.83277,0.68647 -4.07368,0.87369 -6.19457,0.70988 -2.1329,-0.15212 -4.01368,-0.49926 -5.68236,-0.66307 -0.59625,-0.0624 -1.1685,-0.0859 -1.72473,-0.10533 -2.52905,0.49538 -5.08212,1.34175 -7.58715,2.19985 -0.81235,0.28475 -1.60069,0.54217 -2.40501,0.80738 -5.58633,1.82931 -11.40075,3.04624 -17.0311,4.22808 -2.93322,0.61238 -5.97049,1.24423 -8.911714,1.9619 -5.002088,1.20525 -10.848521,2.79661 -16.3268,5.47231 -1.320547,0.63187 -2.581081,0.99459 -3.8136,1.34955 -0.60025,0.15601 -1.2045,0.33154 -1.808748,0.54216 -2.312974,0.78399 -4.569911,1.9229 -6.310624,3.16714 0.44819,-0.0156 0.896367,-0.0156 1.360568,-0.0156 3.35739,0.0156 6.158554,-0.0468 9.243835,-0.9361 11.104639,-3.19444 22.613443,-4.94573 34.178253,-5.20316 3.57749,-0.0819 7.20701,-0.0352 10.71647,0.0312 8.35547,0.13651 16.97909,0.28083 25.12246,-1.52116 8.15941,-1.7864 16.37883,-4.84821 25.06646,-9.28691 0.32414,-0.37834 0.65626,-0.76448 0.98041,-1.13892 0.78833,-0.86591 1.6647,-1.61478 2.51304,-2.07502 1.72471,-0.97121 3.05727,-0.67869 3.03326,-0.39785 0.0239,0.32374 -0.96841,0.62407 -2.09687,1.68108 -0.88037,0.83468 -1.9328,1.29494 -2.1729,2.61719 -0.0839,0.47194 0.0161,1.0531 0.46419,1.22084 0.34815,0.12091 0.74431,-0.0624 1.06045,-0.28865 0.85634,-0.60065 1.47661,-1.43144 2.34097,-2.05551 0.93639,-0.67869 1.78874,-1.40416 2.62509,-2.21156 1.69271,-1.61866 2.72113,-2.69906 3.09329,-2.49235 0.33213,0.20282 -0.0719,1.70838 -1.4566,3.79119 -1.36057,2.07894 -3.78158,4.62593 -6.85087,6.83746 -3.08528,2.20765 -6.12655,3.74443 -8.37547,4.70392 -1.02043,0.43683 -1.87278,0.73718 -2.52105,0.92439 -5.0141,2.29345 -10.19627,4.22417 -15.25438,6.09246 -3.6415,1.34954 -7.39107,2.73811 -11.00457,4.24367 -2.93724,1.22863 -6.02251,2.61719 -8.59158,4.55569 -0.82834,0.62407 -1.60867,1.31835 -2.28897,2.06333 3.78157,-1.65767 8.07539,-2.90973 12.99343,-3.82242 4.92604,-0.92049 9.96816,-1.38465 14.84217,-1.84489 1.58467,-0.14433 3.14532,-0.28864 4.71799,-0.46806 13.28554,-1.35735 23.81793,-3.52987 33.16979,-6.82963 6.27463,-2.21545 11.53283,-6.229 15.61453,-11.93532 3.00124,-4.20466 4.02169,-9.67696 2.70113,-14.64608 -1.26053,-4.77022 -4.9981,-9.27132 -9.592,-11.63109 -1.37657,0.61627 -2.65312,1.25985 -3.78958,1.89951 -1.16849,0.64746 -2.22493,1.33395 -3.27738,1.85271 -1.05243,0.49925 -2.07285,0.74109 -2.77715,0.67868 -0.72029,-0.0585 -1.06044,-0.29253 -1.04443,-0.47975 0.0678,-0.40956 1.21252,-0.62018 2.6771,-1.93072 0.30014,-0.25742 0.6483,-0.55776 1.02845,-0.88148 -1.61668,0.36662 -3.20134,0.60065 -4.72598,0.63966 -2.50502,0.0819 -4.72597,-0.26523 -6.5067,-0.76059 -3.61752,-0.9868 -5.42628,-2.42996 -5.2582,-2.7459 0.18008,-0.40565 2.26494,0.33934 5.66237,0.73329 1.70069,0.20282 3.72156,0.30813 5.93046,0.0976 2.19693,-0.2028 4.59391,-0.76058 7.10297,-1.55235 2.52904,-0.78398 4.95406,-1.665486 7.251,-2.344166 2.29697,-0.67867 4.44987,-1.123322 6.29865,-1.298832 0.54821,-0.04296 1.04444,-0.06638 1.52863,-0.08193 2.14489,-0.405641 4.2938,-0.768382 6.40666,-1.107724 1.1885,-0.20282 2.373,-0.393949 3.54949,-0.612368 6.41867,-1.107723 13.14547,-2.578178 18.87987,-5.764837 8.59157,-4.750707 10.0842,-16.5846 10.33231,-21.456238 z m -2.97724,-20.35242 c 4.60591,5.246073 7.02691,12.73879 6.64276,20.520136 -0.2641,5.464501 -2.00485,18.761043 -12.18908,24.408869 -6.21056,3.444079 -13.30954,4.98865 -20.04836,6.166561 -1.17648,0.218419 -2.381,0.413452 -3.57348,0.616267 -4.10571,0.67088 -8.33547,1.37296 -12.38116,2.46506 4.04569,3.00333 7.191,7.42642 8.41552,12.04065 1.57665,5.95593 0.34813,12.52814 -3.26539,17.5792 -4.45385,6.22118 -10.46435,10.80417 -17.37123,13.24584 -9.63601,3.39337 -20.44853,5.62441 -34.03016,7.03247 -1.57669,0.15992 -3.16935,0.30814 -4.74601,0.46805 -4.79799,0.44465 -9.74004,0.91271 -14.51805,1.7864 -7.16298,1.34172 -12.88536,3.42847 -17.48728,6.44349 -0.31613,0.19113 -0.67228,0.28085 -1.02043,0.28085 -0.38015,0 -0.76431,-0.10533 -1.08443,-0.33935 -0.63228,-0.45244 -0.8964,-1.22863 -0.6723,-1.96191 1.07644,-3.38947 3.42543,-6.59562 6.63478,-9.00608 2.89318,-2.17254 6.22658,-3.7015 9.39191,-5.01204 3.68152,-1.53288 7.4791,-2.94094 11.14463,-4.29048 4.14574,-1.53675 8.3835,-3.11255 12.50522,-4.89113 -4.3218,1.61086 -8.59158,2.86291 -12.82935,3.80681 -8.57957,1.87611 -17.43525,1.7318 -26.00282,1.60308 -3.48146,-0.0663 -7.06296,-0.12092 -10.56441,-0.0429 -11.25271,0.25353 -22.437364,1.96581 -33.241862,5.06273 -3.549473,1.02582 -6.766814,1.08824 -10.288285,1.08824 -3.021268,0.008 -6.426682,0.10532 -9.171821,1.56016 -0.856367,0.46805 -1.916806,0.18722 -2.42902,-0.62017 -0.524214,-0.81127 -0.30812,-1.85269 0.496212,-2.40264 0.980405,-0.67088 1.98082,-1.28325 2.977235,-1.87613 1.400593,-0.84638 2.73714,-1.65377 3.929638,-2.60158 1.144476,-0.89709 2.537066,-1.74347 4.037685,-2.51187 -1.052438,-0.0663 -2.040853,-0.1053 -2.909211,0.0624 -2.813174,0.54215 -5.830433,0.85028 -8.731631,0.85028 l -21.973171,0.0391 c -1.168477,0 -2.340975,0.0585 -3.50946,0.10531 -2.553064,0.10531 -5.190162,0.21062 -7.70321,-0.12091 -2.841185,-0.37055 -5.478284,-0.33934 -8.547562,0.12091 -0.380159,0.0585 -0.828346,0.17161 -1.308547,0.30813 -0.948394,0.23404 -1.99283,0.51876 -3.02926,0.51876 -0.296125,0 -0.59625,-0.0352 -0.896376,-0.0818 -1.2005,-0.22622 -2.172905,-0.95561 -2.6250931,-1.94632 -0.4081708,-0.91658 -0.3401424,-1.92679 0.2040841,-2.7966 0.76432,-1.20523 2.348981,-1.92681 4.197751,-2.65228 0.208087,-0.0898 0.396165,-0.16382 0.564235,-0.23403 2.769154,-1.18182 5.870446,-1.96582 9.467947,-2.40267 3.373405,-0.39394 6.798832,-0.45244 10.100209,-0.49924 1.84877,-0.0311 3.765566,-0.0584 5.638349,-0.14432 15.058277,-0.74498 30.456696,-5.64392 45.887128,-14.59149 -10.156235,1.52116 -20.688626,1.24813 -30.960899,0.97899 l -0.952404,-0.0233 c -6.942894,-0.17162 -14.137887,-0.37055 -21.204839,-0.86591 l -2.120885,-0.1443 c -3.8416,-0.29254 -7.811255,-0.58117 -11.660859,-0.33934 -4.998083,0.31593 -9.1718228,1.53677 -12.3771581,3.6274 -0.6242599,0.41343 -1.4606087,0.39784 -2.0648605,-0.0233 -0.6322644,-0.42907 -0.9123807,-1.17013 -0.7403083,-1.89952 0.8963736,-3.48308 3.465443,-6.82964 6.4026689,-8.31571 2.845185,-1.44705 5.910463,-2.04381 8.887704,-2.62888 15.438429,-3.00331 32.93772,-6.408383 49.568662,-11.627156 18.14356,-5.698518 32.921734,-12.820705 45.182834,-21.768275 11.34473,-8.272804 20.63258,-15.38718 28.35182,-21.72147 7.32303,-6.014456 18.60774,-14.201448 31.98132,-15.995645 1.32856,-0.171619 2.68912,-0.581162 4.11371,-1.002411 1.27654,-0.39004 2.59709,-0.783983 3.95367,-1.033611 0.75629,-3.904326 2.03283,-7.69554 3.26935,-11.397044 0.46421,-1.357346 0.92039,-2.722497 1.36056,-4.107148 0.48821,-1.544567 1.0004,-3.198349 2.26094,-4.524495 0.83236,-0.889295 1.94881,-1.528966 3.22536,-1.907307 0.44819,-2.4884704 2.38099,-4.7858201 5.04208,-5.8428366 2.38102,-0.947803 5.19018,-1.0102097 8.34349,-0.1794205 3.20134,0.8424926 5.60635,2.2700487 7.16298,4.2670669 1.63269,2.0516222 2.23293,4.6142042 2.61309,6.8374462 1.04443,6.135368 0.97642,12.348748 0.85235,18.402207 7.4071,0.237925 15.0583,2.012619 22.42935,5.246073 5.81443,2.554778 9.93615,5.366986 12.99343,8.834464"
       fill-opacity="1"
       fill-rule="nonzero"
       id="path2"
       style="display:inline;fill:#01868b;fill-opacity:1;stroke:none;stroke-width:7.78313;stroke-linecap:round;stroke-linejoin:round;stroke-dasharray:none;stroke-opacity:1;paint-order:stroke markers fill" />
  </g>
</svg>
