<svg id="visual" viewBox="0 0 900 675" preserveAspectRatio="xMidYMid meet" xmlns="http://www.w3.org/2000/svg"
    xmlns:xlink="http://www.w3.org/1999/xlink" version="1.1" fill="none" stroke="#0fa5f7" stroke-width='5'>
        <g transform="translate(611 555)">
            <path
                d="M55.8 -19.4C63.5 5.4 54.7 34.3 35 48.8C15.3 63.3 -15.4 63.3 -35.2 48.9C-55 34.4 -64 5.3 -56.3 -19.5C-48.6 -44.4 -24.3 -65 -0.1 -65C24.1 -64.9 48.2 -44.2 55.8 -19.4Z"
                fill="inherit" stroke="inherit" stroke-width="inherit"></path>
        </g>
        <g transform="translate(795 354)">
            <path
                d="M35 -10.9C40.2 4.7 35.8 24 24.1 32.2C12.5 40.4 -6.5 37.7 -19.5 27.9C-32.5 18.2 -39.7 1.5 -35.5 -12.8C-31.3 -27.1 -15.6 -38.9 -0.4 -38.8C14.9 -38.7 29.7 -26.6 35 -10.9Z"
                fill="inherit" stroke="inherit" stroke-width="inherit"></path>
        </g>
        <g transform="translate(444 199)">
            <path
                d="M23.8 -7.4C27.5 3.6 24.8 17.1 16 23.9C7.2 30.8 -7.8 31.1 -17.4 24.1C-27 17.1 -31.2 2.8 -27.4 -8.4C-23.6 -19.5 -11.8 -27.5 -0.9 -27.2C10.1 -26.9 20.1 -18.4 23.8 -7.4Z"
                fill="inherit" stroke="inherit" stroke-width="inherit"></path>
        </g>
        <g transform="translate(366 556)">
            <path
                d="M27.2 -7.9C31.1 3.2 27.3 17.8 18.3 24.2C9.2 30.5 -5.1 28.6 -14.8 21.4C-24.6 14.1 -29.7 1.4 -26.5 -8.9C-23.2 -19.1 -11.6 -26.9 0 -26.9C11.6 -26.9 23.2 -19.1 27.2 -7.9Z"
                fill="inherit" stroke="inherit" stroke-width="inherit"></path>
        </g>
        <g transform="translate(163 226)">
            <path
                d="M22.4 -6.4C25.5 2.4 22.2 14.1 14.8 19.2C7.5 24.3 -3.9 22.7 -11.8 16.8C-19.6 11 -23.9 0.9 -21.4 -7C-18.8 -15 -9.4 -20.7 0.1 -20.8C9.6 -20.8 19.3 -15.1 22.4 -6.4Z"
                fill="inherit" stroke="inherit" stroke-width="inherit"></path>
        </g>
        <g transform="translate(180 415)">
            <path
                d="M27.8 -9.7C32 3.8 28.5 19.2 18.7 26.5C8.9 33.8 -7.3 33 -17.4 25.3C-27.6 17.6 -31.7 3 -27.8 -10.2C-23.9 -23.4 -11.9 -35.1 -0.1 -35.1C11.8 -35.1 23.7 -23.3 27.8 -9.7Z"
                fill="inherit" stroke="inherit" stroke-width="inherit"></path>
        </g>
        <g transform="translate(645 157)">
            <path
                d="M29.8 -8.4C34.6 5 31.6 22.1 20.9 30.2C10.3 38.2 -8 37.2 -19.1 28.5C-30.2 19.9 -34.1 3.8 -29.8 -9.1C-25.4 -21.9 -12.7 -31.4 -0.1 -31.4C12.5 -31.4 25.1 -21.8 29.8 -8.4Z"
                fill="inherit" stroke="inherit" stroke-width="inherit"></path>
        </g>
        <g transform="translate(479 390)">
            <path
                d="M41.8 -13.4C47.2 3.1 39.9 23.9 24.3 35.8C8.8 47.6 -15 50.5 -28.7 40.3C-42.3 30.2 -45.9 7.1 -39.4 -10.9C-33 -28.9 -16.5 -41.7 0.8 -42C18.2 -42.3 36.4 -30 41.8 -13.4Z"
                fill="inherit" stroke="inherit" stroke-width="inherit"></path>
        </g>
        <g transform="translate(809 569)">
            <path
                d="M45.2 -14.5C50.7 2.5 42.1 24.2 25.9 36C9.8 47.7 -13.7 49.5 -28.1 38.9C-42.6 28.4 -48 5.5 -41.8 -12.3C-35.6 -30.1 -17.8 -42.9 1 -43.2C19.8 -43.6 39.6 -31.4 45.2 -14.5Z"
                fill="inherit" stroke="inherit" stroke-width="inherit"></path>
        </g>
</svg>