<svg id="visual" viewBox="0 0 900 675" preserveAspectRatio="xMidYMid meet" xmlns="http://www.w3.org/2000/svg"
    xmlns:xlink="http://www.w3.org/1999/xlink" version="1.1" fill='#FF33AA'  stroke="none" stroke-width='0'>
            <path
                transform="translate(357 279)"
                d="M58.5 -45.1C72.9 -28.7 79.4 -4.5 73.5 14.9C67.6 34.4 49.2 49.2 27.6 61C6 72.8 -18.8 81.7 -36.8 74C-54.7 66.3 -65.9 41.9 -69.3 18.2C-72.8 -5.4 -68.6 -28.4 -55.8 -44.4C-43 -60.5 -21.5 -69.5 0.3 -69.7C22.1 -70 44.2 -61.4 58.5 -45.1Z"
                fill="inherit" stroke="inherit" stroke-width="inherit"></path>
            <path
                transform="translate(142 347)"
                d="M45 -36.9C53.6 -25.1 52.7 -6.6 47.9 9.6C43.2 25.9 34.6 39.9 20.4 49.5C6.2 59 -13.5 64 -27.1 57.2C-40.7 50.3 -48.1 31.5 -49.6 14.3C-51.1 -2.8 -46.8 -18.3 -37.5 -30.3C-28.3 -42.2 -14.1 -50.5 2 -52.1C18.2 -53.7 36.4 -48.6 45 -36.9Z"
                fill="inherit" stroke="inherit" stroke-width="inherit"></path>
            <path
                transform="translate(591 441)"
                d="M25.2 -21.2C31.4 -12.3 34.4 -1.9 32.7 8.4C31.1 18.7 24.9 28.8 16.3 32.4C7.6 36 -3.5 33.1 -13.4 28.2C-23.3 23.3 -32.1 16.3 -36 6.2C-40 -3.9 -39 -17.1 -32.2 -26.2C-25.4 -35.2 -12.7 -40.1 -1.6 -38.8C9.5 -37.5 19 -30.1 25.2 -21.2Z"
                fill="inherit" stroke="inherit" stroke-width="inherit"></path>
            <path
                transform="translate(749 293)"
                d="M57.1 -41.7C71.8 -27.1 80 -3.5 73.7 14.1C67.5 31.6 46.9 43.1 25.5 53.7C4.1 64.2 -18 73.9 -35.1 67.7C-52.2 61.5 -64.3 39.4 -68.4 16.9C-72.5 -5.6 -68.7 -28.7 -56 -42.8C-43.2 -56.9 -21.6 -62.2 -0.2 -62C21.2 -61.8 42.4 -56.3 57.1 -41.7Z"
                fill="inherit" stroke="inherit" stroke-width="inherit"></path>
            <path
                transform="translate(778 551)"
                d="M18.4 -13.3C23.4 -8.4 26.6 -0.8 25.2 5.9C23.8 12.7 17.8 18.5 11.3 20.5C4.9 22.5 -2 20.5 -8.4 17.4C-14.8 14.4 -20.8 10.2 -22.8 4.3C-24.9 -1.6 -23 -9.3 -18.6 -14C-14.2 -18.7 -7.1 -20.5 -0.2 -20.4C6.7 -20.2 13.4 -18.1 18.4 -13.3Z"
                fill="inherit" stroke="inherit" stroke-width="inherit"></path>
            <path
                transform="translate(314 533)"
                d="M20.9 -17.4C25.8 -10.4 27.7 -1.8 26.7 7.5C25.7 16.8 21.7 26.9 14.8 29.9C7.9 32.9 -2 28.9 -11.1 24.1C-20.1 19.3 -28.2 13.8 -30.3 6.4C-32.4 -1 -28.4 -10.3 -22.4 -17.5C-16.3 -24.7 -8.2 -29.8 -0.1 -29.7C8 -29.6 15.9 -24.3 20.9 -17.4Z"
                fill="inherit" stroke="inherit" stroke-width="inherit"></path>
            <path
                transform="translate(529 153)"
                d="M23.7 -19C29.2 -12 31.1 -2.2 29.9 8.3C28.7 18.9 24.4 30.3 15.7 35.5C7.1 40.8 -5.9 40.1 -17.2 34.9C-28.5 29.8 -38.1 20.4 -41.5 8.6C-44.8 -3.1 -41.9 -17.1 -33.9 -24.7C-26 -32.3 -13 -33.5 -1.9 -32C9.1 -30.4 18.2 -26.1 23.7 -19Z"
                fill="inherit" stroke="inherit" stroke-width="inherit"></path>
            <path
                transform="translate(136 128)"
                d="M17.6 -14.2C22.9 -7.5 27.1 -0.2 25.9 6.3C24.8 12.9 18.2 18.6 11.1 21.4C4 24.1 -3.7 23.8 -11.2 21.1C-18.8 18.3 -26.3 13 -28.6 5.7C-30.9 -1.5 -28 -10.8 -22.4 -17.5C-16.7 -24.2 -8.4 -28.4 -1.1 -27.6C6.2 -26.7 12.4 -20.8 17.6 -14.2Z"
                fill="inherit" stroke="inherit" stroke-width="inherit"></path>
</svg>