<svg id="visual" viewBox="0 0 960 100" xmlns="http://www.w3.org/2000/svg"
    xmlns:xlink="http://www.w3.org/1999/xlink" version="1.1">
    <path
        d="M0 42L32 47C64 52 128 62 192 70.8C256 79.7 320 87.3 384 82.7C448 78 512 61 576 55C640 49 704 54 768 61C832 68 896 77 928 81.5L960 86L960 101L928 101C896 101 832 101 768 101C704 101 640 101 576 101C512 101 448 101 384 101C320 101 256 101 192 101C128 101 64 101 32 101L0 101Z"
        fill="inherit" stroke-linecap="round" stroke-linejoin="miter"></path>
</svg>