<?xml version="1.0" encoding="UTF-8" standalone="no"?>
<!-- Created with Inkscape (http://www.inkscape.org/) -->

<svg
   width="400"
   height="200"
   viewBox="0 0 105.83333 52.916668"
   version="1.1"
   id="svg1"
   xmlns="http://www.w3.org/2000/svg"
   xmlns:svg="http://www.w3.org/2000/svg">
  <defs
     id="defs1">
    <clipPath
       clipPathUnits="userSpaceOnUse"
       id="clipPath31">
      <path
         d="M 0,0 H 3600 V 2880 H 0 Z"
         id="path31" />
    </clipPath>
  </defs>
  <g
     id="layer1">
    <path
       id="path30"
       d="m 2828.63,1096.61 c -4.1,0 -8.08,1.68 -10.96,4.75 -3.83,4.1 -5.06,10 -3.17,15.3 l 52.11,145.9 c -30.54,25.82 -80.63,38.4 -152.62,38.4 -64.19,0 -135.87,-10.02 -199.11,-18.87 -35.58,-4.97 -69.17,-9.66 -97.93,-12.1 -19.87,-1.58 -39.85,-2.37 -59.46,-2.37 -99.37,0 -337.91,22.44 -406.59,230.37 -2.3,6.97 0.77,14.57 7.25,17.98 2.22,1.17 4.61,1.73 6.98,1.73 4.56,0 9.03,-2.08 11.95,-5.92 45.95,-60.45 110.41,-91.09 191.59,-91.09 61.09,0 130.79,17.81 201.58,51.53 24.97,12.08 53.21,27.6 83.12,44.02 118.92,65.32 266.94,146.6 434.08,146.6 39.76,0 79.05,-4.79 117.02,-14.25 l 33.56,94 c 1.89,5.29 6.57,9.07 12.13,9.82 l 2.01,0.13 c 4.85,0 9.46,-2.36 12.29,-6.4 l 328.56,-470.22 c 2.78,-3.98 3.46,-9.06 1.83,-13.64 -1.63,-4.57 -5.38,-8.07 -10.06,-9.38 L 2832.7,1097.17 c -1.34,-0.38 -2.71,-0.56 -4.07,-0.56"
       transform="matrix(0.06889029,0.02571835,-0.02593789,0.06578753,-95.298159,-140.94797)"
       clip-path="url(#clipPath31)" />
  </g>
</svg>
