<?xml version="1.0" encoding="UTF-8" standalone="no"?>
<!-- Created with Inkscape (http://www.inkscape.org/) -->

<svg
   width="300mm"
   height="150mm"
   viewBox="0 0 299.99997 149.99999"
   version="1.1"
   id="svg1"
   xmlns="http://www.w3.org/2000/svg"
   xmlns:svg="http://www.w3.org/2000/svg">
  <defs
     id="defs1" />
     <linearGradient id="gradient1" x2="1" y2="1">
      <stop offset="0%" stop-color="var(--danger)" />
      <stop offset="100%" stop-color="var(--primary)" />
    </linearGradient>
  <g
     id="layer1">
    <path
       id="path11"
       d="m 132.08987,59.61707 c -1.43691,-15.129745 5.09226,-31.411908 16.63373,-41.479391 10.05652,-8.7705382 23.87995,-13.1520031 38.92888,-12.3342825 9.3493,0.509652 16.58379,2.9095671 22.11657,7.3442815 6.67201,5.343715 10.58585,14.034381 9.97152,22.139329 -0.56789,7.485005 -5.10489,14.935777 -11.84104,19.454163 -5.99165,4.016342 -12.86022,5.697425 -21.32972,6.986765 -17.90033,2.727005 -36.03102,3.118752 -54.02709,1.289337 -0.20129,-1.171432 -0.34888,-2.308636 -0.45285,-3.400202 z m 139.44988,69.95131 c -16.50859,1.80659 -33.23713,1.07255 -49.81145,-2.20595 -18.48368,-3.65882 -36.311,-10.37935 -52.98675,-19.97902 -21.89919,-12.608122 -31.19032,-26.779425 -34.79889,-38.508971 17.73536,1.658262 35.59083,1.198057 53.22222,-1.487112 7.26734,-1.106778 15.64017,-2.704186 23.04122,-7.663761 8.20721,-5.499653 13.53617,-14.44134 14.25479,-23.919302 C 225.23163,25.645502 220.49552,14.88581 212.39608,8.3972861 206.1251,3.3730531 198.10118,0.66126051 187.86673,0.10216701 171.75284,-0.77260389 156.86287,3.993 145.94205,13.516603 133.03823,24.774535 125.75221,43.12192 127.38031,60.263641 c 0.068,0.718836 0.15264,1.44908 0.25597,2.19834 C 83.366145,56.96233 40.162872,38.036834 3.7283131,7.377986 2.6554428,6.4765918 1.1777611,6.7922713 0.42785943,8.0816066 -0.32204337,9.3747489 -0.06069877,11.150915 1.0121694,12.052311 38.554041,43.642981 83.145564,62.998255 128.78658,68.330561 c 3.41485,13.387807 13.14682,29.940006 37.9094,44.198789 17.07995,9.83168 35.33705,16.71575 54.26313,20.46206 10.95024,2.16791 21.96555,3.25187 32.94705,3.25187 6.10917,0 12.20761,-0.33851 18.27827,-1.01171 L 268.63559,150 300,128.41216 l -34.73313,-11.96915 6.27288,13.12537"
       fill="url(#gradient1)" />
  </g>
</svg>
