<svg
  xmlns="http://www.w3.org/2000/svg"
  xml:space="preserve"
  version="1.1"
  viewBox="0 0 1707 1707"
  xmlns:xlink="http://www.w3.org/1999/xlink"
>
  <defs>
    <style type="text/css">
      .fil0 {
        fill: #000002;
      }
      .fil1 {
        fill: #dedfcf;
      }
      .fil2 {
        fill: #e6f7db;
      }
      .fil3 {
        fill: #ffe600;
      }
    </style>
  </defs>
  <g id="Layer_x0020_1">
    <metadata id="CorelCorpID_0Corel-Layer"></metadata>
    <path
      class="fil0"
      d="M442 1566c-124,0 -158,-127 -106,-127 12,0 22,10 22,22 0,32 39,59 84,59 46,0 85,-27 85,-59 0,-39 -26,-48 -89,-59 -53,-10 -125,-23 -125,-104 0,-57 58,-104 129,-104 124,0 158,127 107,127 -12,0 -22,-10 -22,-23 0,-32 -39,-59 -85,-59 -45,0 -84,27 -84,59 0,39 26,48 88,59 53,10 126,23 126,104 0,58 -58,105 -130,105zm1012 -468l0 0 -1255 0c-50,0 -91,41 -91,90l0 383c0,50 41,90 91,90l1309 0c50,0 90,-40 90,-90l0 -383c0,-49 -40,-90 -90,-90l-54 0zm-22 -45l0 -725 -188 0c-52,0 -95,-43 -95,-95l0 -188 -698 0c-97,0 -176,80 -176,177l0 831 1157 0zm45 -744l0 744 31 0c75,0 136,61 136,135l0 383c0,75 -61,136 -136,136l-1309 0c-75,0 -136,-61 -136,-136l0 -383c0,-74 61,-135 136,-135l31 0 0 -831c0,-122 99,-222 221,-222l721 0c7,0 12,3 17,7l280 280c6,6 10,13 8,22zm-282 -231l0 155c0,27 22,49 49,49l156 0 -205 -204zm73 846l-798 0c-30,0 -30,-46 0,-46l798 0c30,0 30,46 0,46zm0 -175l-798 0c-30,0 -30,-45 0,-45l798 0c30,0 30,45 0,45zm0 -174l-798 0c-30,0 -30,-46 0,-46l798 0c30,0 30,46 0,46zm-281 -159c-20,0 -30,-25 -16,-39l91 -91 -91 -92c-21,-21 11,-53 32,-32l108 107c8,9 8,24 0,33l-108 107c-4,4 -10,7 -16,7zm-239 0c-6,0 -12,-3 -16,-7l-107 -107c-9,-9 -9,-24 0,-33l107 -107c21,-21 53,11 32,32l-91 92 91 91c14,14 4,39 -16,39zm91 4c-15,0 -26,-15 -22,-29l58 -216c7,-29 51,-17 43,11l-57 217c-3,10 -12,17 -22,17zm7 1146c-231,0 -231,-372 0,-372 160,0 214,182 144,294 24,25 59,49 38,70 -9,9 -24,9 -33,0l-34 -35c-29,26 -67,43 -115,43zm0 -327c-171,0 -172,281 0,281 35,0 62,-11 82,-29 -16,-16 -44,-37 -24,-57 19,-19 39,7 53,21 43,-83 7,-216 -111,-216zm525 326l-203 0c-13,0 -23,-10 -23,-22l0 -326c0,-30 46,-30 46,0l0 303 180 0c30,0 30,45 0,45z"
      id="id_101"
      style="fill: rgb(26, 26, 26)"
    ></path>
    <path
      class="fil1"
      d="M1195 233c0,27 22,49 49,49l156 0 -205 -204 0 155z"
      id="id_102"
      style="fill: rgb(219, 219, 219)"
    ></path>
    <path
      class="fil2"
      d="M732 409l-107 -107c-9,-9 -9,-24 0,-33l107 -107c21,-21 53,11 32,32l-91 92 91 91c14,14 4,39 -16,39 -6,0 -12,-3 -16,-7zm85 -18l58 -216c7,-29 51,-17 43,11l-57 217c-3,10 -12,17 -22,17 -15,0 -26,-15 -22,-29zm245 -105l-91 -92c-21,-21 11,-53 32,-32l108 107c8,9 8,24 0,33l-108 107c-4,4 -10,7 -16,7 -20,0 -30,-25 -16,-39l91 -91zm182 42c-52,0 -95,-43 -95,-95l0 -188 -698 0c-97,0 -176,80 -176,177l0 831 1157 0 0 -725 -188 0zm-774 201l798 0c30,0 30,46 0,46l-798 0c-30,0 -30,-46 0,-46zm0 175l798 0c30,0 30,45 0,45l-798 0c-30,0 -30,-45 0,-45zm0 174l798 0c30,0 30,46 0,46l-798 0c-30,0 -30,-46 0,-46z"
      id="id_103"
      style="fill: rgb(255, 255, 255)"
    ></path>
    <path
      class="fil3"
      d="M846 1239c-171,0 -172,281 0,281 35,0 62,-11 82,-29 -16,-16 -44,-37 -24,-57 19,-19 39,7 53,21 43,-83 7,-216 -111,-216z"
      id="id_104"
      style="fill: rgb(228, 213, 245)"
    ></path>
    <path
      class="fil3"
      d="M1191 1217l0 303 180 0c30,0 30,45 0,45l-203 0c-13,0 -23,-10 -23,-22l0 -326c0,-30 46,-30 46,0zm-345 -23c160,0 214,182 144,294 24,25 59,49 38,70 -9,9 -24,9 -33,0l-34 -35c-29,26 -67,43 -115,43 -231,0 -231,-372 0,-372zm-274 267c0,58 -58,105 -130,105 -124,0 -158,-127 -106,-127 12,0 22,10 22,22 0,32 39,59 84,59 46,0 85,-27 85,-59 0,-39 -26,-48 -89,-59 -53,-10 -125,-23 -125,-104 0,-57 58,-104 129,-104 124,0 158,127 107,127 -12,0 -22,-10 -22,-23 0,-32 -39,-59 -85,-59 -45,0 -84,27 -84,59 0,39 26,48 88,59 53,10 126,23 126,104zm882 -363l0 0 -1255 0c-50,0 -91,41 -91,90l0 383c0,50 41,90 91,90l1309 0c50,0 90,-40 90,-90l0 -383c0,-49 -40,-90 -90,-90l-54 0z"
      id="id_105"
      style="fill: rgb(228, 213, 245)"
    ></path>
  </g>
</svg>
